<svg width="61" height="66" fill="none" xmlns="http://www.w3.org/2000/svg"><path d="M7.502 15.667 1 11.912v15.019l6.502 3.75 6.502 3.755V19.421l-6.502-3.754Z" stroke="#FF9894" stroke-width="1.216" stroke-miterlimit="10" stroke-linejoin="round"/><path d="M27.004 4.407 20.506.652l-6.502 3.755-6.502 3.755L1 11.912l6.502 3.755 6.502 3.755 6.502-3.755 6.498-3.755 6.502-3.75-6.502-3.755Z" stroke="#FF9894" stroke-width="1.216" stroke-miterlimit="10" stroke-linejoin="round"/><path d="M53.012 4.407 46.51.652l-6.502 3.755-6.502 3.755-6.502 3.75 6.502 3.755 6.502 3.755 6.502-3.755 6.502-3.755 6.502-3.75-6.502-3.755Z" stroke="#FF9894" stroke-width="1.216" stroke-miterlimit="10" stroke-linejoin="round"/><path d="m20.506 15.667-6.502 3.755v15.014l6.502-3.755 6.498-3.75V11.912l-6.498 3.755ZM33.506 15.667l-6.502-3.755v45.049l6.502 3.754 6.502 3.755V19.42l-6.502-3.754Z" stroke="#FF9894" stroke-width="1.216" stroke-miterlimit="10" stroke-linejoin="round"/><path d="m53.012 11.912-6.502 3.755-6.502 3.755V64.47l6.502-3.755 6.502-3.755 6.502-3.754V8.162l-6.502 3.75Z" stroke="#FF9894" stroke-width="1.216" stroke-miterlimit="10" stroke-linejoin="round"/></svg>