<svg width="61" height="66" viewBox="0 0 61 66" fill="none" xmlns="http://www.w3.org/2000/svg">
<path d="M7.50204 15.6668L1 11.9121V19.4215V26.9309L7.50204 30.6815L14.0041 34.4362V26.9309V19.4215L7.50204 15.6668Z" stroke="#FF9894" stroke-width="1.21626" stroke-miterlimit="10" stroke-linejoin="round"/>
<path d="M27.004 4.40705L20.5061 0.652344L14.0041 4.40705L7.50204 8.16175L1 11.9123L7.50204 15.667L14.0041 19.4217L20.5061 15.667L27.004 11.9123L33.5061 8.16175L27.004 4.40705Z" stroke="#FF9894" stroke-width="1.21626" stroke-miterlimit="10" stroke-linejoin="round"/>
<path d="M53.0121 4.40705L46.51 0.652344L40.008 4.40705L33.5059 8.16175L27.0039 11.9123L33.5059 15.667L40.008 19.4217L46.51 15.667L53.0121 11.9123L59.5141 8.16175L53.0121 4.40705Z" stroke="#FF9894" stroke-width="1.21626" stroke-miterlimit="10" stroke-linejoin="round"/>
<path d="M20.5059 15.6668L14.0039 19.4215V26.9309V34.4362L20.5059 30.6815L27.0038 26.9309V19.4215V11.9121L20.5059 15.6668Z" stroke="#FF9894" stroke-width="1.21626" stroke-miterlimit="10" stroke-linejoin="round"/>
<path d="M33.5059 15.6668L27.0039 11.9121V19.4215V26.9309V34.4362V41.9456V49.4508V56.9602L33.5059 60.7149L40.008 64.4696V56.9602V49.4508V41.9456V34.4362V26.9309V19.4215L33.5059 15.6668Z" stroke="#FF9894" stroke-width="1.21626" stroke-miterlimit="10" stroke-linejoin="round"/>
<path d="M53.0119 11.9122L46.5099 15.6669L40.0078 19.4216V26.931V34.4362V41.9456V49.4509V56.9603V64.4697L46.5099 60.715L53.0119 56.9603L59.5139 53.2056V45.7003V38.1909V30.6815V23.1763V15.6669V8.16162L53.0119 11.9122Z" stroke="#FF9894" stroke-width="1.21626" stroke-miterlimit="10" stroke-linejoin="round"/>
</svg>
