<svg width="63" height="84" viewBox="0 0 63 84" fill="none" xmlns="http://www.w3.org/2000/svg">
<path d="M21.2153 55.179L14.4766 51.2876V59.0703V66.8487L21.2153 62.9617L27.954 59.0703L21.2153 55.179Z" stroke="#FFD178" stroke-width="1.26053" stroke-miterlimit="10" stroke-linejoin="round"/>
<path d="M7.7387 47.3963L1 43.5093V51.2877V59.0704L7.7387 62.9618L14.4774 66.8488V59.0704V51.2877L7.7387 47.3963Z" stroke="#FFD178" stroke-width="1.26053" stroke-miterlimit="10" stroke-linejoin="round"/>
<path d="M7.7387 39.6174L1 43.5088L7.7387 47.3958L14.4774 51.2872V43.5088V35.7261L7.7387 39.6174Z" stroke="#FFD178" stroke-width="1.26053" stroke-miterlimit="10" stroke-linejoin="round"/>
<path d="M54.909 27.9442L48.1703 31.8355L41.4316 35.7269V43.5096V51.288L48.1703 47.3967L54.909 43.5096L61.6477 39.6183V31.8355V24.0571L54.909 27.9442Z" stroke="#FFD178" stroke-width="1.26053" stroke-miterlimit="10" stroke-linejoin="round"/>
<path d="M34.6938 47.3963L27.9551 43.5093V51.2877V59.0704L34.6938 55.179L41.4325 51.2877L34.6938 47.3963Z" stroke="#FFD178" stroke-width="1.26053" stroke-miterlimit="10" stroke-linejoin="round"/>
<path d="M7.7387 16.2732L1 12.3818V20.1646V27.943L7.7387 31.8343L14.4774 35.7257V27.943V20.1646L7.7387 16.2732Z" stroke="#FFD178" stroke-width="1.26053" stroke-miterlimit="10" stroke-linejoin="round"/>
<path d="M21.2153 31.8352L14.4766 35.7266L21.2153 39.6179L27.954 43.5093V35.7266V27.9438L21.2153 31.8352Z" stroke="#FFD178" stroke-width="1.26053" stroke-miterlimit="10" stroke-linejoin="round"/>
<path d="M54.9099 51.2878L48.1712 47.3965L41.4325 51.2878L34.6938 55.1792L27.9551 59.0706L34.6938 62.9619L41.4325 66.849L48.1712 62.9619L54.9099 59.0706L61.6486 55.1792L54.9099 51.2878Z" stroke="#FFD178" stroke-width="1.26053" stroke-miterlimit="10" stroke-linejoin="round"/>
<path d="M54.9099 20.1658L48.1712 16.2744L41.4325 20.1658L34.6938 24.0571L27.9551 27.9442L34.6938 31.8355L41.4325 35.7269L48.1712 31.8355L54.9099 27.9442L61.6486 24.0571L54.9099 20.1658Z" stroke="#FFD178" stroke-width="1.26053" stroke-miterlimit="10" stroke-linejoin="round"/>
<path d="M21.2153 39.6174L14.4766 35.7261V43.5088V51.2872L21.2153 55.1786L27.954 59.0699V51.2872V43.5088L21.2153 39.6174Z" stroke="#FFD178" stroke-width="1.26053" stroke-miterlimit="10" stroke-linejoin="round"/>
<path d="M34.6938 31.8352L27.9551 27.9438V35.7266V43.5093L34.6938 47.3963L41.4325 51.2877V43.5093V35.7266L34.6938 31.8352Z" stroke="#FFD178" stroke-width="1.26053" stroke-miterlimit="10" stroke-linejoin="round"/>
<path d="M27.9548 4.60425L21.2161 0.712891L14.4774 4.60425L7.7387 8.4913L1 12.3827L7.7387 16.274L14.4774 20.1654L21.2161 16.274L27.9548 12.3827L34.6935 8.4913L27.9548 4.60425Z" stroke="#FFD178" stroke-width="1.26053" stroke-miterlimit="10" stroke-linejoin="round"/>
<path d="M27.954 12.3821L21.2153 16.2734L14.4766 20.1648V27.9432V35.7259L21.2153 31.8346L27.954 27.9432L34.6927 24.0562V16.2734V8.49072L27.954 12.3821Z" stroke="#FFD178" stroke-width="1.26053" stroke-miterlimit="10" stroke-linejoin="round"/>
<path d="M34.6938 62.9607L27.9551 59.0693V66.8477V74.6305L34.6938 78.5218L41.4325 82.4089V74.6305V66.8477L34.6938 62.9607Z" stroke="#FFD178" stroke-width="1.26053" stroke-miterlimit="10" stroke-linejoin="round"/>
<path d="M54.909 59.0706L48.1703 62.9619L41.4316 66.849V74.6317V82.4101L48.1703 78.5231L54.909 74.6317L61.6477 70.7403V62.9619V55.1792L54.909 59.0706Z" stroke="#FFD178" stroke-width="1.26053" stroke-miterlimit="10" stroke-linejoin="round"/>
</svg>
