<svg width="63" height="84" fill="none" xmlns="http://www.w3.org/2000/svg"><path d="m21.215 55.179-6.738-3.891v15.561l6.738-3.887 6.739-3.892-6.739-3.891ZM7.739 47.396 1 43.51V59.07l6.739 3.892 6.738 3.887V51.288L7.74 47.396Z" stroke="#FFD178" stroke-width="1.261" stroke-miterlimit="10" stroke-linejoin="round"/><path d="M7.739 39.617 1 43.51l6.739 3.887 6.738 3.891V35.726L7.74 39.617ZM54.909 27.944l-6.739 3.892-6.738 3.89v15.562l6.738-3.891 6.739-3.887 6.739-3.892V24.057l-6.739 3.887ZM34.694 47.396l-6.739-3.887V59.07l6.739-3.891 6.738-3.891-6.738-3.892ZM7.739 16.273 1 12.382v15.561l6.739 3.891 6.738 3.892V20.165L7.74 16.273ZM21.215 31.835l-6.738 3.892 6.738 3.89 6.739 3.892V27.944l-6.739 3.891Z" stroke="#FFD178" stroke-width="1.261" stroke-miterlimit="10" stroke-linejoin="round"/><path d="m54.91 51.288-6.739-3.891-6.739 3.89-6.738 3.892-6.739 3.892 6.739 3.89 6.738 3.888 6.74-3.887 6.738-3.891 6.739-3.892-6.74-3.891ZM54.91 20.166l-6.739-3.892-6.739 3.892-6.738 3.891-6.739 3.887 6.739 3.892 6.738 3.89 6.74-3.89 6.738-3.892 6.739-3.887-6.74-3.891ZM21.215 39.617l-6.738-3.89V51.286l6.738 3.892 6.739 3.89V43.51l-6.739-3.892Z" stroke="#FFD178" stroke-width="1.261" stroke-miterlimit="10" stroke-linejoin="round"/><path d="m34.694 31.835-6.739-3.891V43.509l6.739 3.887 6.738 3.892V35.727l-6.738-3.892ZM27.955 4.604 21.216.713l-6.739 3.891L7.74 8.491 1 12.383l6.739 3.891 6.738 3.891 6.74-3.891 6.738-3.891 6.739-3.892-6.74-3.887Z" stroke="#FFD178" stroke-width="1.261" stroke-miterlimit="10" stroke-linejoin="round"/><path d="m27.954 12.382-6.739 3.891-6.738 3.892v15.561l6.738-3.891 6.739-3.892 6.739-3.887V8.491l-6.739 3.891ZM34.694 62.96l-6.739-3.89V74.63l6.739 3.892 6.738 3.887V66.848l-6.738-3.887ZM54.909 59.07l-6.739 3.892-6.738 3.887V82.41l6.738-3.887 6.739-3.891 6.739-3.892V55.18l-6.739 3.892Z" stroke="#FFD178" stroke-width="1.261" stroke-miterlimit="10" stroke-linejoin="round"/></svg>