<svg width="355" height="333" fill="none" xmlns="http://www.w3.org/2000/svg"><path d="M90.363 78.48 68.52 65.855 46.69 78.481 24.844 91.093 3 103.706l21.844 12.612L46.69 128.93l21.83-12.612 21.844-12.612 21.845-12.613-21.845-12.612Z" stroke="#999DFF" stroke-width="4.481" stroke-miterlimit="10" stroke-linejoin="round"/><path d="m90.365 103.7-21.844 12.613-21.83 12.612V229.838l21.83-12.613 21.844-12.626V154.15l21.845-12.613V91.088L90.365 103.7ZM177.729 229.842l-21.845-12.613-21.844 12.613-21.83-12.613-21.845-12.626-21.844 12.626-21.83 12.613 21.83 12.612 21.844 12.612 21.845 12.613 21.83 12.612 21.844-12.612 21.845-12.613 21.844-12.612-21.844-12.612Z" stroke="#999DFF" stroke-width="4.481" stroke-miterlimit="10" stroke-linejoin="round"/><path d="m112.208 267.68-21.845-12.613-21.844-12.612-21.83-12.612V128.93l-21.845-12.613L3 103.705v151.362l21.844 12.613 21.845 12.612 21.83 12.612 21.844 12.613 21.845 12.612 21.83 12.613v-50.45l-21.83-12.612ZM177.728 128.93l-21.845-12.612-21.844 12.612-21.83 12.613-21.845 12.612 21.845 12.612 21.83 12.613 21.844-12.613 21.845-12.612 21.844-12.612-21.844-12.613Z" stroke="#999DFF" stroke-width="4.481" stroke-miterlimit="10" stroke-linejoin="round"/><path d="m112.209 166.768-21.845-12.612v50.449l21.845 12.627 21.83 12.612V179.38l-21.83-12.612Z" stroke="#999DFF" stroke-width="4.481" stroke-miterlimit="10" stroke-linejoin="round"/><path d="m177.726 154.155-21.845 12.613-21.844 12.612v50.463l21.844-12.612 21.845-12.626 21.844-12.613v-50.449l-21.844 12.612ZM177.726 255.07l-21.845 12.612-21.844 12.613v50.449l21.844-12.612 21.845-12.613 21.844-12.612v-50.449l-21.844 12.612Z" stroke="#999DFF" stroke-width="4.481" stroke-miterlimit="10" stroke-linejoin="round"/><path d="m221.47 129.237-21.859 12.613 21.859 12.626 21.858 12.626v-50.491l-21.858 12.626ZM221.47 53.489l-21.859-12.627V91.354l21.859 12.626 21.858 12.626V66.115L221.47 53.489ZM287.045 40.868l-21.859 12.626-21.858 12.627v50.491l21.858-12.626 21.859-12.627 21.858-12.626V28.242l-21.858 12.626ZM330.764 116.612l-21.859 12.627-21.858 12.612V192.356l21.858-12.626 21.859-12.626 21.858-12.627v-50.491l-21.858 12.626Z" stroke="#F6A5FE" stroke-width="4.481" stroke-miterlimit="10" stroke-linejoin="round"/><path d="m265.186 129.237-21.858-12.626v50.491l21.858 12.627 21.859 12.626V141.85l-21.859-12.613Z" stroke="#F6A5FE" stroke-width="4.481" stroke-miterlimit="10" stroke-linejoin="round"/><path d="m265.186 179.727-21.858-12.626v50.491l21.858-12.626 21.859-12.613-21.859-12.626Z" stroke="#F6A5FE" stroke-width="4.481" stroke-miterlimit="10" stroke-linejoin="round"/><path d="m221.47 154.475-21.859-12.627v50.506l21.859 12.612 21.858 12.626v-50.491l-21.858-12.626ZM330.762 91.355l-21.859-12.627-21.858 12.627-21.859 12.626-21.858 12.627 21.858 12.626 21.859 12.612 21.858-12.612 21.859-12.626 21.858-12.627-21.858-12.626ZM287.045 15.612 265.186 3l-21.858 12.612L221.47 28.24l-21.859 12.626 21.859 12.626 21.858 12.627 21.858-12.627 21.859-12.626 21.858-12.626-21.858-12.627Z" stroke="#F6A5FE" stroke-width="4.481" stroke-miterlimit="10" stroke-linejoin="round"/></svg>