<svg width="758" height="600" fill="none" xmlns="http://www.w3.org/2000/svg"><path d="m228.97 198.923-25.247-14.592-25.23 14.592-25.247 14.577L128 228.077l25.246 14.576 25.247 14.577 25.23-14.577 25.247-14.576 25.246-14.577-25.246-14.577Z" stroke="#999DFF" stroke-width="3.18" stroke-miterlimit="10" stroke-linejoin="round"/><path d="m228.971 228.07-25.247 14.577-25.23 14.577v116.629l25.23-14.577 25.247-14.593v-58.306l25.246-14.577v-58.306l-25.246 14.576ZM329.94 373.857l-25.246-14.576-25.246 14.576-25.231-14.576-25.246-14.593-25.247 14.593-25.23 14.576 25.23 14.577 25.247 14.577 25.246 14.576 25.231 14.577 25.246-14.577 25.246-14.576 25.247-14.577-25.247-14.577Z" stroke="#999DFF" stroke-width="3.18" stroke-miterlimit="10" stroke-linejoin="round"/><path d="m254.216 417.589-25.246-14.577-25.247-14.577-25.23-14.576v-116.63l-25.247-14.576L128 228.076v174.936l25.246 14.577 25.247 14.576 25.23 14.577 25.247 14.577 25.246 14.576 25.23 14.577v-58.307l-25.23-14.576ZM329.94 257.23l-25.246-14.577-25.247 14.577-25.23 14.577-25.246 14.576 25.246 14.577 25.23 14.577 25.247-14.577 25.246-14.577 25.247-14.576-25.247-14.577Z" stroke="#999DFF" stroke-width="3.18" stroke-miterlimit="10" stroke-linejoin="round"/><path d="m254.217 300.961-25.246-14.577v58.307l25.246 14.593 25.23 14.576v-58.322l-25.23-14.577Z" stroke="#999DFF" stroke-width="3.18" stroke-miterlimit="10" stroke-linejoin="round"/><path d="m329.938 286.383-25.246 14.577-25.247 14.577v58.322l25.247-14.576 25.246-14.593 25.247-14.577v-58.306l-25.247 14.576ZM329.938 403.015l-25.246 14.576-25.247 14.577v58.306l25.247-14.576 25.246-14.577 25.247-14.576v-58.307l-25.247 14.577Z" stroke="#999DFF" stroke-width="3.18" stroke-miterlimit="10" stroke-linejoin="round"/><path d="m380.495 257.585-25.263 14.576 25.263 14.593 25.263 14.593V242.992l-25.263 14.593ZM380.495 170.039l-25.263-14.593V213.801l25.263 14.593 25.263 14.593V184.632l-25.263-14.593ZM456.283 155.453l-25.263 14.593-25.262 14.592V242.993l25.262-14.592 25.263-14.593 25.263-14.593V140.86l-25.263 14.593ZM506.81 242.993l-25.262 14.593-25.263 14.577V330.534l25.263-14.593 25.262-14.593 25.263-14.593V228.4l-25.263 14.593Z" stroke="#F6A5FE" stroke-width="3.18" stroke-miterlimit="10" stroke-linejoin="round"/><path d="m431.02 257.585-25.262-14.593V301.347l25.262 14.593 25.263 14.592V272.161l-25.263-14.576Z" stroke="#F6A5FE" stroke-width="3.18" stroke-miterlimit="10" stroke-linejoin="round"/><path d="m431.02 315.938-25.262-14.593V359.7l25.262-14.593 25.263-14.576-25.263-14.593ZM380.495 286.752l-25.263-14.592V330.531l25.263 14.577 25.263 14.592V301.345l-25.263-14.593ZM506.808 213.803l-25.262-14.593-25.263 14.593-25.263 14.593-25.262 14.592 25.262 14.593 25.263 14.577 25.263-14.577 25.262-14.593 25.263-14.592-25.263-14.593ZM456.283 126.264l-25.263-14.577-25.262 14.577-25.263 14.592-25.263 14.593 25.263 14.593 25.263 14.593 25.262-14.593 25.263-14.593 25.262-14.593-25.262-14.592Z" stroke="#F6A5FE" stroke-width="3.18" stroke-miterlimit="10" stroke-linejoin="round"/><path d="m606.716 388.812-25.263-14.593-25.263 14.593-25.262 14.592 25.262 14.593 25.263 14.577 25.263 14.593 25.262 14.592V403.404l-25.262-14.592ZM733.029 315.862l-25.263-14.592-25.263-14.593-25.262-14.577-25.263-14.593-25.262-14.592-25.263 14.592L556.19 272.1l-25.262 14.577 25.262 14.593 25.263 14.592 25.263 14.593 25.262 14.593 25.263 14.577 25.262 14.593 25.263-14.593 25.263-14.577 25.262-14.593-25.262-14.593Z" stroke="#FFD178" stroke-width="3.18" stroke-miterlimit="10" stroke-linejoin="round"/><path d="m733.029 345.048-25.262 14.577-25.263 14.592V549.299l25.263-14.593 25.262-14.593 25.263-14.593V330.455l-25.263 14.593ZM657.241 359.624l-25.263-14.593-25.262-14.592-25.263-14.593-25.263-14.593-25.262-14.593v58.355l25.262 14.593 25.263 14.593 25.263 14.593 25.262 14.593v58.355l-25.262-14.593-25.263-14.593-25.263-14.593-25.262-14.593v58.355l25.262 14.593 25.263 14.593 25.263 14.593 25.262 14.593 25.263 14.592 25.262 14.593V374.201l-25.262-14.593v.016Z" stroke="#FFD178" stroke-width="3.18" stroke-miterlimit="10" stroke-linejoin="round"/><path d="m228.226 37.542-25.263 14.593 25.263 14.593 25.262 14.593V22.948l-25.262 14.593ZM405.049-6.222 379.786 8.371l-25.263 14.577V81.319l25.263-14.593 25.263-14.593 25.262-14.592V-20.814L405.049-6.222ZM329.259 66.728l-25.263-14.593V110.49l25.263-14.593 25.262-14.576-25.262-14.593Z" stroke="#FF9894" stroke-width="3.18" stroke-miterlimit="10" stroke-linejoin="round"/><path d="m278.74 37.542-25.247-14.593V81.32l25.247 14.577 25.262 14.593V52.135L278.74 37.542Z" stroke="#FF9894" stroke-width="3.18" stroke-miterlimit="10" stroke-linejoin="round"/><path d="m278.74 95.894-25.247-14.577V139.672l25.247-14.593 25.262-14.593-25.262-14.593ZM228.226 66.728l-25.263-14.593V110.49l25.263 14.593 25.262 14.593V81.32l-25.262-14.592ZM405.047-35.407 379.784-50l-25.263 14.593-25.262 14.593-25.263 14.592 25.263 14.593 25.262 14.577L379.784 8.37l25.263-14.593 25.262-14.592-25.262-14.593Z" stroke="#FF9894" stroke-width="3.18" stroke-miterlimit="10" stroke-linejoin="round"/><path d="m278.74 8.37-25.247 14.577L278.74 37.54l25.262 14.592V-6.223L278.74 8.37Z" stroke="#FF9894" stroke-width="3.18" stroke-miterlimit="10" stroke-linejoin="round"/><path d="M329.259 8.37 303.996-6.223V52.132l25.263 14.593 25.262 14.593V22.947L329.259 8.37Z" stroke="#FF9894" stroke-width="3.18" stroke-miterlimit="10" stroke-linejoin="round"/><path d="m429.69 460.615-25.262 14.593 25.262 14.593 25.263 14.593V446.039l-25.263 14.576ZM480.221 518.989l-25.263-14.593v58.356l25.263-14.593 25.262-14.593-25.262-14.577Z" stroke="#A8F3E1" stroke-width="3.18" stroke-miterlimit="10" stroke-linejoin="round"/><path d="m480.221 548.158-25.263 14.593 25.263 14.593 25.262 14.593v-58.372l-25.262 14.593ZM530.743 606.515l-25.263-14.577v58.356l25.263-14.593 25.263-14.593-25.263-14.593Z" stroke="#A8F3E1" stroke-width="3.18" stroke-miterlimit="10" stroke-linejoin="round"/><path d="m480.216 577.344-25.263-14.592V504.397l-25.263-14.593-25.262-14.593v116.726l25.262 14.577 25.263 14.593 25.263 14.593 25.262 14.592V591.937l-25.262-14.593ZM606.534 446.04l-25.263-14.593-25.263-14.593-25.262-14.593-25.263 14.593-25.262 14.593-25.263 14.593 25.263 14.576 25.262 14.593 25.263 14.593 25.262 14.593 25.263-14.593 25.263-14.593 25.246-14.593-25.246-14.576Z" stroke="#A8F3E1" stroke-width="3.18" stroke-miterlimit="10" stroke-linejoin="round"/><path d="m530.746 489.801-25.263-14.593-25.262-14.593-25.263-14.576V504.394l25.263 14.592 25.262 14.577V591.934l25.263 14.577 25.262 14.593v-116.71l-25.262-14.593Z" stroke="#A8F3E1" stroke-width="3.18" stroke-miterlimit="10" stroke-linejoin="round"/><path d="m606.53 475.208-25.263 14.593-25.262 14.593V621.104l25.262-14.593 25.263-14.577 25.247-14.592V460.615l-25.247 14.593ZM657.667 51.277 632.42 36.701l-25.246 14.576-25.23 14.577-25.247 14.577 25.247 14.576 25.23 14.577 25.246-14.577 25.247-14.576 25.246-14.577-25.246-14.577Z" stroke="#A8F3E1" stroke-width="3.18" stroke-miterlimit="10" stroke-linejoin="round"/><path d="m581.944 95.01-25.247-14.577v58.307l25.247 14.592 25.23 14.577v-58.323l-25.23-14.576Z" stroke="#A8F3E1" stroke-width="3.18" stroke-miterlimit="10" stroke-linejoin="round"/><path d="m657.663 80.433-25.247 14.576-25.246 14.577v58.323l25.246-14.577 25.247-14.593 25.246-14.576V65.856l-25.246 14.577ZM102.97 216.577 77.723 202l-25.246 14.577-25.23 14.576L2 245.73l25.246 14.577 25.23 14.576 25.247-14.576 25.247-14.577 25.246-14.577-25.246-14.576Z" stroke="#A8F3E1" stroke-width="3.18" stroke-miterlimit="10" stroke-linejoin="round"/><path d="M27.246 260.309 2 245.732v58.307l25.246 14.593 25.23 14.576v-58.322l-25.23-14.577Z" stroke="#A8F3E1" stroke-width="3.18" stroke-miterlimit="10" stroke-linejoin="round"/><path d="m102.966 245.732-25.247 14.577-25.246 14.576v58.323l25.246-14.577 25.247-14.593 25.246-14.576v-58.307l-25.246 14.577Z" stroke="#A8F3E1" stroke-width="3.18" stroke-miterlimit="10" stroke-linejoin="round"/></svg>