<svg width="61" height="81" fill="none" xmlns="http://www.w3.org/2000/svg"><path d="M26.987 4.467 20.49.712l-6.494 3.755-6.498 3.75L1 11.969l6.498 3.75 6.498 3.751 6.493-3.75 6.498-3.75 6.498-3.751-6.498-3.75Z" stroke="#A8F3E1" stroke-width="1.216" stroke-miterlimit="10" stroke-linejoin="round"/><path d="m26.988 11.967-6.498 3.75-6.494 3.751V49.477l6.494-3.75 6.498-3.755V26.97l6.498-3.751V8.217l-6.498 3.75Z" stroke="#A8F3E1" stroke-width="1.216" stroke-miterlimit="10" stroke-linejoin="round"/><path d="m52.975 49.478-6.498-3.75-6.498 3.75-6.493-3.75-6.498-3.755-6.498 3.754-6.494 3.75 6.494 3.751 6.498 3.751 6.498 3.75 6.493 3.751 6.498-3.75 6.498-3.751 6.498-3.75-6.498-3.751Z" stroke="#A8F3E1" stroke-width="1.216" stroke-miterlimit="10" stroke-linejoin="round"/><path d="m33.485 60.73-6.498-3.751-6.497-3.75-6.494-3.751V19.469l-6.498-3.75L1 11.969v45.009l6.498 3.751 6.498 3.751 6.493 3.75 6.498 3.751 6.498 3.75 6.494 3.751V64.48l-6.494-3.75ZM52.976 19.47l-6.498-3.751-6.498 3.75-6.494 3.75-6.498 3.751 6.498 3.75 6.494 3.752 6.498-3.751 6.498-3.75 6.498-3.751-6.498-3.75Z" stroke="#A8F3E1" stroke-width="1.216" stroke-miterlimit="10" stroke-linejoin="round"/><path d="m33.486 30.721-6.498-3.75V41.973l6.498 3.755 6.494 3.75V34.472l-6.494-3.75ZM52.975 26.971l-6.498 3.75-6.497 3.751V49.48l6.497-3.75 6.498-3.756 6.498-3.75V23.22l-6.498 3.75ZM52.975 56.979l-6.498 3.75-6.497 3.751v15.002l6.497-3.75 6.498-3.75 6.498-3.751V53.228l-6.498 3.751Z" stroke="#A8F3E1" stroke-width="1.216" stroke-miterlimit="10" stroke-linejoin="round"/></svg>