<svg width="312" height="359" fill="none" xmlns="http://www.w3.org/2000/svg"><path d="m178.029 129.236-21.858-12.626-21.859 12.626-21.858 12.627 21.858 12.626 21.859 12.613 21.858 12.626 21.859 12.626v-50.491l-21.859-12.627ZM287.321 66.118 265.463 53.49l-21.859-12.626-21.858-12.612-21.859-12.627L178.029 3l-21.858 12.626-21.859 12.627-21.858 12.612 21.858 12.626 21.859 12.627 21.858 12.626 21.858 12.627 21.859 12.612 21.858 12.626 21.859-12.626 21.858-12.612 21.858-12.627-21.858-12.626Z" stroke="#FF9894" stroke-width="4.481" stroke-miterlimit="10" stroke-linejoin="round"/><path d="m287.322 91.37-21.858 12.612-21.859 12.627v151.488l21.859-12.626 21.858-12.627 21.859-12.626V78.744L287.322 91.37ZM221.746 103.982l-21.859-12.626-21.858-12.626-21.858-12.627-21.859-12.626-21.858-12.627v50.492l21.858 12.626 21.859 12.627 21.858 12.626 21.858 12.626v50.492l-21.858-12.627-21.858-12.626-21.859-12.626-21.858-12.627v50.492l21.858 12.626 21.859 12.626 21.858 12.627 21.858 12.626 21.859 12.627 21.858 12.626V116.595l-21.858-12.627v.014Z" stroke="#FF9894" stroke-width="4.481" stroke-miterlimit="10" stroke-linejoin="round"/><path d="M24.858 192.49 3 205.117l21.858 12.626 21.859 12.626v-50.491L24.858 192.49ZM68.579 242.998l-21.858-12.626V280.864l21.858-12.627 21.858-12.626-21.858-12.613Z" stroke="#FFD178" stroke-width="4.481" stroke-miterlimit="10" stroke-linejoin="round"/><path d="m68.579 268.236-21.858 12.627 21.858 12.626 21.858 12.626V255.61L68.58 268.236ZM112.294 318.73l-21.858-12.613V356.609l21.858-12.627 21.858-12.626-21.858-12.626Z" stroke="#FFD178" stroke-width="4.481" stroke-miterlimit="10" stroke-linejoin="round"/><path d="m68.575 293.49-21.858-12.626V230.372l-21.859-12.626L3 205.12v100.996l21.858 12.613 21.859 12.626 21.858 12.626 21.858 12.627V306.116L68.575 293.49ZM178.15 179.879l-21.858-12.626-21.859-12.627L112.575 142l-21.858 12.626-21.859 12.627L47 179.879l21.858 12.612 21.859 12.627 21.858 12.626 21.858 12.627 21.859-12.627 21.858-12.626 21.844-12.627-21.844-12.612ZM112.296 217.743l-21.859-12.626L68.58 192.49l-21.858-12.612v50.491l21.858 12.627 21.858 12.612v50.506l21.859 12.612 21.858 12.626V230.369l-21.858-12.626Z" stroke="#FFD178" stroke-width="4.481" stroke-miterlimit="10" stroke-linejoin="round"/><path d="m177.868 205.117-21.858 12.626-21.859 12.627v100.983l21.859-12.627 21.858-12.612 21.844-12.626V192.491l-21.844 12.626Z" stroke="#FFD178" stroke-width="4.481" stroke-miterlimit="10" stroke-linejoin="round"/></svg>