<svg width="312" height="358" viewBox="0 0 312 358" fill="none" xmlns="http://www.w3.org/2000/svg">
<path d="M178.029 129.236L156.171 116.61L134.312 129.236L112.454 141.863L134.312 154.489L156.171 167.101L178.029 179.728L199.888 192.354V167.101V141.863L178.029 129.236Z" stroke="#FF9894" stroke-width="4.48095" stroke-miterlimit="10" stroke-linejoin="round"/>
<path d="M287.321 66.1178L265.463 53.4914L243.604 40.8651L221.746 28.2527L199.887 15.6264L178.029 3L156.171 15.6264L134.312 28.2527L112.454 40.8651L134.312 53.4914L156.171 66.1178L178.029 78.7441L199.887 91.3705L221.746 103.983L243.604 116.609L265.463 103.983L287.321 91.3705L309.179 78.7441L287.321 66.1178Z" stroke="#FF9894" stroke-width="4.48095" stroke-miterlimit="10" stroke-linejoin="round"/>
<path d="M287.322 91.37L265.464 103.982L243.605 116.609V141.861V167.1V192.353V217.606V242.844V268.097L265.464 255.471L287.322 242.844L309.181 230.218V204.979V179.727V154.488V129.235V103.982V78.7437L287.322 91.37Z" stroke="#FF9894" stroke-width="4.48095" stroke-miterlimit="10" stroke-linejoin="round"/>
<path d="M221.746 103.982L199.887 91.356L178.029 78.7297L156.171 66.1033L134.312 53.4769L112.454 40.8506V91.342L134.312 103.968L156.171 116.595L178.029 129.221L199.887 141.847V192.339L178.029 179.713L156.171 167.086L134.312 154.46L112.454 141.833V192.325L134.312 204.951L156.171 217.578L178.029 230.204L199.887 242.83L221.746 255.457L243.604 268.083V116.595L221.746 103.968V103.982Z" stroke="#FF9894" stroke-width="4.48095" stroke-miterlimit="10" stroke-linejoin="round"/>
<path d="M24.8583 191.364L3 203.991L24.8583 216.617L46.7168 229.243V203.991V178.752L24.8583 191.364Z" stroke="#FFD178" stroke-width="4.48095" stroke-miterlimit="10" stroke-linejoin="round"/>
<path d="M68.579 241.872L46.7207 229.246V254.485V279.738L68.579 267.111L90.4374 254.485L68.579 241.872Z" stroke="#FFD178" stroke-width="4.48095" stroke-miterlimit="10" stroke-linejoin="round"/>
<path d="M68.579 267.11L46.7207 279.737L68.579 292.363L90.4374 304.989V279.737V254.484L68.579 267.11Z" stroke="#FFD178" stroke-width="4.48095" stroke-miterlimit="10" stroke-linejoin="round"/>
<path d="M112.294 317.604L90.4355 304.991V330.23V355.483L112.294 342.856L134.152 330.23L112.294 317.604Z" stroke="#FFD178" stroke-width="4.48095" stroke-miterlimit="10" stroke-linejoin="round"/>
<path d="M68.5751 292.364L46.7168 279.738V254.485V229.246L24.8583 216.62L3 203.994V229.246V254.485V279.738V304.991L24.8583 317.603L46.7168 330.229L68.5751 342.856L90.4335 355.482V330.229V304.991L68.5751 292.364Z" stroke="#FFD178" stroke-width="4.48095" stroke-miterlimit="10" stroke-linejoin="round"/>
<path d="M177.871 178.753L156.012 166.127L134.154 153.5L112.296 140.874L90.4374 153.5L68.579 166.127L46.7207 178.753L68.579 191.365L90.4374 203.992L112.296 216.618L134.154 229.245L156.012 216.618L177.871 203.992L199.715 191.365L177.871 178.753Z" stroke="#FFD178" stroke-width="4.48095" stroke-miterlimit="10" stroke-linejoin="round"/>
<path d="M112.296 216.617L90.4374 203.991L68.579 191.364L46.7207 178.752V203.991V229.243L68.579 241.87L90.4374 254.482V279.735V304.988L112.296 317.6L134.154 330.226V304.988V279.735V254.482V229.243L112.296 216.617Z" stroke="#FFD178" stroke-width="4.48095" stroke-miterlimit="10" stroke-linejoin="round"/>
<path d="M177.868 203.991L156.01 216.617L134.151 229.244V254.483V279.735V304.988V330.227L156.01 317.6L177.868 304.988L199.712 292.362V267.109V241.87V216.617V191.365L177.868 203.991Z" stroke="#FFD178" stroke-width="4.48095" stroke-miterlimit="10" stroke-linejoin="round"/>
</svg>
