<svg width="61" height="81" fill="none" xmlns="http://www.w3.org/2000/svg"><path d="m53.016 49.685-6.502-3.755-6.502 3.755-6.502-3.755-6.502-3.75-6.502-3.755-6.502-3.755-6.502 3.755L1 42.18l6.502 3.75 6.502 3.755 6.502 3.755 6.502 3.755 6.502 3.754 6.502 3.75 6.502-3.75 6.502-3.755 6.502-3.754-6.502-3.755Z" stroke="#F6A5FE" stroke-width="1.216" stroke-miterlimit="10" stroke-linejoin="round"/><path d="m33.51 60.95-6.502-3.755-6.502-3.755-6.502-3.755-6.502-3.754L1 42.18v15.014l6.502 3.755 6.502 3.75 6.502 3.755 6.502 3.755 6.502 3.754 6.502 3.755V64.7l-6.502-3.75ZM33.51 30.915l-6.502-3.755-6.502-3.75-6.502-3.755L7.502 15.9 1 12.145V27.16l6.502 3.755 6.502 3.755 6.502 3.754 6.502 3.755 6.502 3.75 6.502 3.755V34.67l-6.502-3.754ZM53.017 27.16l-6.502 3.755-6.502 3.755v15.015l6.502-3.755 6.502-3.75 6.502-3.755V23.41l-6.502 3.75ZM53.017 57.195l-6.502 3.754-6.502 3.75v15.02l6.502-3.755 6.502-3.755 6.502-3.754V53.439l-6.502 3.756Z" stroke="#F6A5FE" stroke-width="1.216" stroke-miterlimit="10" stroke-linejoin="round"/><path d="M53.016 19.656 46.514 15.9l-6.502-3.755-6.502-3.755-6.502-3.75L20.506.886l-6.502 3.755-6.502 3.75L1 12.146l6.502 3.755 6.485 3.742-.02.013 6.502 3.754h.037l6.502 3.75 6.502 3.756 6.502 3.754 6.502-3.755 6.502-3.754 6.502-3.75-6.502-3.755Z" stroke="#F6A5FE" stroke-width="1.216" stroke-miterlimit="10" stroke-linejoin="round"/></svg>