<svg width="200" height="200" viewBox="0 0 200 200" fill="none" xmlns="http://www.w3.org/2000/svg">
<g clip-path="url(#clip0_166_1105)">
<rect width="200" height="200" fill="white"/>
<rect width="200" height="200" fill="#9595A1" fill-opacity="0.5"/>
<path d="M184.271 154.175C170.506 149.117 143.82 138.724 138.485 133.949C138.485 133.949 125.565 129.174 125.565 118.217V109.21C129.382 104.392 131.859 98.4658 132.449 91.9959C135.188 90.8286 136.316 86.4479 136.316 86.4479L141.041 72.9012C142.507 66.942 140.454 65.0617 139.012 64.4681L141.234 56.3268C141.234 56.3268 146.314 37.7859 127.571 31.4188C127.571 31.4188 129.169 20.3693 102.709 17C102.709 17 103.926 17.9352 104.275 19.0594C104.623 20.1836 63.2864 10.4439 57.8577 60.6312L60.6599 58.1972C60.6599 58.1972 60.7395 60.8203 61.2801 64.3586C59.8508 64.8196 57.4001 66.5274 58.9653 72.8979L63.6909 86.4445C63.6909 86.4445 64.8184 90.8252 67.5576 91.9925C68.1479 98.4624 70.6251 104.388 74.4421 109.207V118.214C74.4421 129.17 61.5221 133.946 61.5221 133.946C56.1864 138.721 29.5009 149.114 15.7354 154.171C1.96651 159.228 0 172.835 0 172.835V199.961H200V172.835C200 172.835 198.033 159.232 184.268 154.175H184.271Z" fill="#9595A1"/>
</g>
<defs>
<clipPath id="clip0_166_1105">
<rect width="200" height="200" fill="white"/>
</clipPath>
</defs>
</svg>
