<svg width="400" height="400" viewBox="0 0 400 400" fill="none" xmlns="http://www.w3.org/2000/svg">
<g clip-path="url(#clip0_166_1106)">
<rect width="400" height="400" fill="white"/>
<rect width="400" height="400" fill="#9595A1" fill-opacity="0.5"/>
<path d="M368.543 308.407C341.011 298.291 287.641 277.5 276.969 267.948C276.969 267.948 251.129 258.395 251.129 236.477V218.459C258.763 208.821 263.717 196.966 264.898 184.023C270.376 181.688 272.631 172.925 272.631 172.925L282.083 145.826C285.014 133.905 280.909 130.144 278.024 128.956L282.467 112.67C282.467 112.67 292.628 75.5807 255.142 62.8438C255.142 62.8438 258.339 40.7399 205.419 34C205.419 34 207.853 35.8707 208.549 38.1196C209.246 40.3684 126.573 20.885 115.715 121.281L121.32 116.412C121.32 116.412 121.479 121.659 122.56 128.737C119.702 129.659 114.8 133.076 117.931 145.819L127.382 172.918C127.382 172.918 129.637 181.682 135.115 184.017C136.296 196.959 141.25 208.814 148.884 218.453V236.47C148.884 258.388 123.044 267.941 123.044 267.941C112.373 277.494 59.0018 298.284 31.4707 308.401C3.93301 318.517 0 345.736 0 345.736V400H400V345.736C400 345.736 396.067 318.524 368.536 308.407H368.543Z" fill="#9595A1"/>
</g>
<defs>
<clipPath id="clip0_166_1106">
<rect width="400" height="400" fill="white"/>
</clipPath>
</defs>
</svg>
