<svg width="100" height="100" fill="none" xmlns="http://www.w3.org/2000/svg"><path d="M79.39 70.16a14.87 14.87 0 0 0-11.74 5.74l-.08-.06-34-19.79h-.11a14.79 14.79 0 0 0 1.14-5.73c0-1.97-.386-3.92-1.14-5.74h.11l33.92-19.8.11-.08a14.8 14.8 0 1 0-2-3.42h-.12L31.59 41l-.11.08a14.92 14.92 0 1 0 0 18.32l.11.08 34 19.79h.08a14.69 14.69 0 0 0-1.16 5.75 14.92 14.92 0 1 0 14.88-14.86Zm0-65.62a10.92 10.92 0 1 1-10.92 10.92A10.93 10.93 0 0 1 79.39 4.54ZM19.72 61.19a10.92 10.92 0 1 1 10.91-10.92 10.93 10.93 0 0 1-10.91 10.92ZM79.39 96a10.92 10.92 0 1 1 10.92-10.92A10.93 10.93 0 0 1 79.39 96Z" fill="#333"/></svg>