<?xml version="1.0" encoding="UTF-8"?><svg id="Layer_1" xmlns="http://www.w3.org/2000/svg" viewBox="0 0 400 400"><defs><style>.cls-1,.cls-2{fill:#84c7ee;}.cls-3{fill:#d6edea;}.cls-4{fill:#add7f3;}.cls-4,.cls-5,.cls-2,.cls-6,.cls-7{stroke:#010101;stroke-width:8px;}.cls-4,.cls-5,.cls-2,.cls-7{stroke-miterlimit:10;}.cls-5{fill:#56c3b8;}.cls-6{stroke-linecap:round;stroke-linejoin:round;}.cls-6,.cls-7{fill:none;}</style></defs><path class="cls-5" d="M320.69,129.49c.34-4,.12-8.03-.65-11.97l11.71-7.83-8.34-16.68-13.25,4.12c-2.74-3.2-5.91-6-9.42-8.32l2.53-13.19-17.97-6.04-6.18,11.68c-4.38-.39-8.8-.16-13.12,.69l-7.53-10.75-17.07,8.15,4.01,12.31c-3.4,2.8-6.37,6.08-8.81,9.75l-13-2.38-3.55,10.26,23.53,11.02c-.33,4.28-14.32,10.86-13.39,15.05l-11.11,7.43,8.34,16.68,13.1-4.08c2.81,3.13,6.04,5.86,9.6,8.1l-2.56,13.37,17.97,6.04,6.52-12.32c4.05,.26,8.16,0,12.23-.83l8.08,11.54,17.07-8.15-4.38-13.43c3.05-2.58,5.74-5.55,8-8.85l14.18,2.6,6.18-17.55-12.71-6.42h0Zm-45.53,22.25c-14.75,0-26.71-11.68-26.71-26.09s11.96-26.09,26.71-26.09,26.71,11.68,26.71,26.09-11.96,26.09-26.71,26.09Z"/><path class="cls-3" d="M126.42,232.78h21.46l10.01,54.2c.87,4.7,4.73,8.09,9.22,8.09h4.41c2.74,0,5.43-.71,7.86-2.06l48.84-27.27,20.42-11.4c2.48-1.38,4.62-3.36,6.26-5.78,6.56-9.65,23.05-35.87,22.55-54.82-1.01-38.43-30.35-70.68-66.37-70.68-63.77,0-69.64,65.11-69.64,65.11l-15.01,44.62Z"/><path class="cls-6" d="M102.22,230.68h25.34l10.89,57.08c1.02,5.2,5.59,8.95,10.89,8.95h5.2c3.23,0,6.41-.78,9.27-2.28l58.59-27.29,24.11-12.61c2.93-1.53,5.45-3.72,7.39-6.4,7.74-10.68,27.21-39.69,26.62-60.65-1.19-42.51-35.83-78.2-78.36-78.2-75.29,0-82.22,72.03-82.22,72.03l-17.73,49.36Z"/><path class="cls-4" d="M229.59,174.93c1.65,1.83,3.54,3.42,5.62,4.73l-1.28,8.56,10.86,3.24,3.56-7.7c2.55,.11,5.09-.15,7.57-.76l4.87,6.67,10.04-5.57-2.7-7.69c1.97-1.82,3.67-3.9,5.05-6.2l7.88,1.11,3.33-11.11-7.15-3.35c.14-2.71-.12-5.42-.76-8.06l6.37-4.86-5.33-10.15-7.52,2.84c-1.78-1.94-3.83-3.61-6.09-4.95l1.21-8.13-10.86-3.24-3.53,7.62c-2.57-.05-5.11,.27-7.54,.93l-4.93-6.76-10.04,5.57,2.85,8.11c-1.79,1.74-3.35,3.71-4.62,5.86l-8.46-1.2-3.33,11.11,7.79,3.66c-.09,2.46,.14,4.92,.69,7.32l-6.95,5.3,5.33,10.15,8.06-3.04h0Zm6.55-27.88c4.93-7.82,15.09-10.17,22.7-5.25s9.78,15.24,4.85,23.06c-4.93,7.82-15.09,10.17-22.7,5.25-7.61-4.92-9.78-15.24-4.85-23.06Z"/><g><path class="cls-1" d="M276.16,163.48v53.24c0,2.25,2.63,3.48,4.35,2.02l12.4-10.45c.87-.73,2.15-.69,2.97,.09l11.69,11.15c1.69,1.61,4.47,.41,4.47-1.92v-54.13"/><path class="cls-7" d="M276.16,163.48v53.24c0,2.25,2.63,3.48,4.35,2.02l12.4-10.45c.87-.73,2.15-.69,2.97,.09l11.69,11.15c1.69,1.61,4.47,.41,4.47-1.92v-54.13"/><path class="cls-2" d="M294.19,190.21c12.88,0,23.33-10.48,23.33-23.42s-10.45-23.42-23.33-23.42-23.33,10.48-23.33,23.42,10.45,23.42,23.33,23.42Z"/></g><path class="cls-6" d="M334.81,220.26c-5.17,74.81-70,131.26-144.8,126.09S58.75,276.36,63.91,201.55c5.17-74.81,70-131.26,144.8-126.09"/></svg>