<svg id="Layer_1" xmlns="http://www.w3.org/2000/svg" viewBox="0 0 400 400"><defs><style>.cls-3{fill:#08b6a9}.cls-4,.cls-5{stroke-miterlimit:10}.cls-4,.cls-5,.cls-6{stroke:#010101;stroke-width:8px}.cls-4,.cls-6{fill:none;stroke-linecap:round}.cls-5{fill:#84c7ee}.cls-6{stroke-linejoin:round}</style></defs><path d="m235.63 153.2-15.11-14.98h-.01c-.08-.09-.17-.15-.26-.22-.1-.08-.18-.17-.29-.24-.18-.12-.37-.21-.56-.3-.04-.02-.07-.04-.11-.06-.03-.01-.07-.02-.11-.04-.42-.17-.86-.27-1.31-.31h-.05c-.19-.01-.37 0-.56 0h-.22c-.17.01-.33.05-.49.08-.09.02-.18.02-.27.04-.5.12-.97.32-1.39.6-.1.07-.18.15-.27.22-.09.08-.2.14-.28.23h-.01v.02l-15.11 14.98-15.11-14.98h-.01c-.08-.1-.18-.16-.27-.24-.09-.08-.17-.16-.28-.23-.18-.12-.38-.23-.59-.32-.03-.01-.05-.03-.08-.04-.07-.03-.16-.05-.23-.08-.38-.14-.77-.23-1.17-.27-.02 0-.04 0-.07-.01-.19-.01-.37 0-.56 0h-.22c-.17.01-.34.05-.51.08-.08.02-.17.02-.25.04-.5.12-.97.32-1.39.6-.1.07-.18.15-.27.22-.09.08-.19.14-.28.23h-.01v.02l-15.11 14.98-6.87-8.37 49.91-62.41 48.06 54.97-18.22 15.81Z" style="fill:#add7f3"/><path class="cls-6" d="M180.92 92.44c-22.03-22.03-69.66-15.53-91.47 6.28-27.49 27.49-27.49 72.05 0 99.54"/><path class="cls-4" d="M61.79 237.58 199.2 70.18l107.06 130.43"/><path class="cls-3" d="m115.6 284.93-30.46-37.11h24.65l-34.94-40.77h22.56l-28.27-34.44-24.95 34.44h18.02l-26.73 40.77h18.51l-24.32 37.11h85.93z"/><path class="cls-4" d="m217.42 137.4-18.22 22.19-18.22-22.19M253.85 137.4l-18.22 22.19-18.21-22.19M180.98 137.4l-18.22 22.19-18.22-22.19"/><path class="cls-5" d="M46.44 284.93h30.71v26.58H46.44z"/><path d="M178 327.8h173.96c-27.79-5.43-127.28-17.25-137.41-28.1-6-6.42-14.83-16.33-15.35-24.39-2.94-46-35.81-59.4-59.97-66.62.98.75 15.5 14.76 16.47 15.59 15.42 13.34 18.84 35.61 12.24 54.63-8.95 25.78 1.61 38.18 4.86 43.77 2.04 3.52 4.41 4.77 5.21 5.11Z" style="fill:#d6edea"/><path class="cls-6" d="m115.6 284.93-30.46-37.11h23.18l-33.47-40.77h22.56l-35.62-43.4-35.62 43.4h22.56l-33.46 40.77h23.18L7.98 284.93H115.6z"/><path class="cls-3" d="m390.41 284.93-30.47-37.11h24.65l-34.93-40.77h22.56l-28.27-34.44L319 207.05h18.01l-26.72 40.77h18.51l-24.32 37.11h85.93z"/><path class="cls-5" d="M321.24 284.93h30.71v26.58h-30.71z"/><path class="cls-6" d="m390.41 284.93-30.47-37.11h23.19l-33.47-40.77h22.56l-35.62-43.4-35.62 43.4h22.56l-33.47 40.77h23.19l-30.47 37.11h107.62z"/><path class="cls-4" d="M351.96 327.8s-155.98-1.93-152.76-60.47-101.24-73.81-101.24-73.81 61.22 19.49 46.59 73.81 9.08 60.47 9.08 60.47"/></svg>
