<?xml version="1.0" encoding="UTF-8"?><svg id="Layer_1" xmlns="http://www.w3.org/2000/svg" viewBox="0 0 400 400"><defs><style>.cls-1{fill:#add7f3;}.cls-2{fill:#d6edea;}.cls-3{fill:#08b6a9;}.cls-4,.cls-5{stroke-miterlimit:10;}.cls-4,.cls-5,.cls-6{stroke:#010101;stroke-width:8px;}.cls-4,.cls-6{fill:none;stroke-linecap:round;}.cls-5{fill:#84c7ee;}.cls-6{stroke-linejoin:round;}</style></defs><path class="cls-1" d="M235.63,153.2l-15.11-14.98s0,0,0,0h-.01c-.08-.09-.17-.15-.26-.22-.1-.08-.18-.17-.29-.24,0,0,0,0,0,0-.18-.12-.37-.21-.56-.3-.04-.02-.07-.04-.11-.06-.03-.01-.07-.02-.11-.04-.42-.17-.86-.27-1.31-.31-.02,0-.03,0-.05,0-.19-.01-.37,0-.56,0-.07,0-.14,0-.22,0-.17,.01-.33,.05-.49,.08-.09,.02-.18,.02-.27,.04-.5,.12-.97,.32-1.39,.6,0,0,0,0,0,0-.1,.07-.18,.15-.27,.22-.09,.08-.2,.14-.28,.23h-.01s0,.02,0,.02l-15.11,14.98-15.11-14.98s0,0,0,0h-.01c-.08-.1-.18-.16-.27-.24-.09-.08-.17-.16-.28-.23,0,0,0,0,0,0-.18-.12-.38-.23-.59-.32-.03-.01-.05-.03-.08-.04-.07-.03-.16-.05-.23-.08-.38-.14-.77-.23-1.17-.27-.02,0-.04,0-.07-.01-.19-.01-.37,0-.56,0-.07,0-.14,0-.22,0-.17,.01-.34,.05-.51,.08-.08,.02-.17,.02-.25,.04-.5,.12-.97,.32-1.39,.6,0,0,0,0,0,0-.1,.07-.18,.15-.27,.22-.09,.08-.19,.14-.28,.23h-.01s0,.02,0,.02l-15.11,14.98-6.87-8.37,49.91-62.41,48.06,54.97-18.22,15.81Z"/><path class="cls-6" d="M180.92,92.44c-22.03-22.03-69.66-15.53-91.47,6.28-27.49,27.49-27.49,72.05,0,99.54"/><polyline class="cls-4" points="61.79 237.58 199.2 70.18 306.26 200.61"/><polygon class="cls-3" points="115.6 284.93 85.14 247.82 109.79 247.82 74.85 207.05 97.41 207.05 69.14 172.61 44.19 207.05 62.21 207.05 35.48 247.82 53.99 247.82 29.67 284.93 115.6 284.93"/><polyline class="cls-4" points="217.42 137.4 199.2 159.59 180.98 137.4"/><polyline class="cls-4" points="253.85 137.4 235.63 159.59 217.42 137.4"/><polyline class="cls-4" points="180.98 137.4 162.76 159.59 144.54 137.4"/><rect class="cls-5" x="46.44" y="284.93" width="30.71" height="26.58"/><path class="cls-2" d="M178,327.8h173.96c-27.79-5.43-127.28-17.25-137.41-28.1-6-6.42-14.83-16.33-15.35-24.39-2.94-46-35.81-59.4-59.97-66.62,.98,.75,15.5,14.76,16.47,15.59,15.42,13.34,18.84,35.61,12.24,54.63-8.95,25.78,1.61,38.18,4.86,43.77,2.04,3.52,4.41,4.77,5.21,5.11Z"/><polygon class="cls-6" points="115.6 284.93 85.14 247.82 108.32 247.82 74.85 207.05 97.41 207.05 61.79 163.65 26.17 207.05 48.73 207.05 15.27 247.82 38.45 247.82 7.98 284.93 115.6 284.93"/><polygon class="cls-3" points="390.41 284.93 359.94 247.82 384.59 247.82 349.66 207.05 372.22 207.05 343.95 172.61 319 207.05 337.01 207.05 310.29 247.82 328.8 247.82 304.48 284.93 390.41 284.93"/><rect class="cls-5" x="321.24" y="284.93" width="30.71" height="26.58"/><polygon class="cls-6" points="390.41 284.93 359.94 247.82 383.13 247.82 349.66 207.05 372.22 207.05 336.6 163.65 300.98 207.05 323.54 207.05 290.07 247.82 313.26 247.82 282.79 284.93 390.41 284.93"/><path class="cls-4" d="M351.96,327.8s-155.98-1.93-152.76-60.47-101.24-73.81-101.24-73.81c0,0,61.22,19.49,46.59,73.81s9.08,60.47,9.08,60.47"/></svg>