<?xml version="1.0" encoding="UTF-8"?><svg id="Layer_1" xmlns="http://www.w3.org/2000/svg" viewBox="0 0 400 400"><defs><style>.cls-1,.cls-2{fill:#08b6a9;}.cls-1,.cls-3,.cls-4{stroke-miterlimit:10;}.cls-1,.cls-3,.cls-4,.cls-5{stroke:#010101;stroke-linecap:round;stroke-width:8px;}.cls-6{fill:#010101;}.cls-7{fill:#84c7ee;}.cls-8{fill:#231f20;}.cls-3{fill:#d6edea;}.cls-4,.cls-5{fill:none;}.cls-5{stroke-linejoin:round;}</style></defs><path class="cls-3" d="M234.18,342.84c4.29,0,7.47-4.78,6.57-9.82-3.75-21.03-19.33-36.48-38.01-36.48h-16.15c-18.68,0-34.25,15.57-38.01,36.62-.9,5.06,2.29,9.83,6.59,9.82l79.02-.14h0Z"/><path class="cls-7" d="M235.8,180.38c21.43-21.43,21.43-56.19,0-77.62-21.43-21.43-56.19-21.43-77.62,0-21.43,21.43-21.43,56.19,0,77.62,21.43,21.43,56.19,21.43,77.62,0Z"/><path class="cls-5" d="M244.09,180.37c26.15-26.15,26.15-68.54,0-94.69-26.15-26.15-68.54-26.15-94.69,0-26.15,26.15-26.15,68.54,0,94.69,26.15,26.15,68.54,26.15,94.69,0Z"/><path class="cls-2" d="M192.91,222.31s-56.43,12.86-68.58-56.43c0,0,77.15,7.14,68.58,56.43Z"/><path class="cls-2" d="M197.16,219.69s-16.4-60.96,83.61-63.81c0,0-23.57,84.29-83.61,63.81h0Z"/><path class="cls-4" d="M196.98,221.66s-15.43-60.69,83.7-64.33c0,0-22.48,84.82-83.7,64.33h0Z"/><path class="cls-1" d="M193.1,221.87s-55.28,14.76-68.67-56.26c0,0,81.51,9.51,68.67,56.26Zm1.21-117.87l.49,207.81m4.66-95.94l53.43-38.35m-58.43,43.9l-52.65-39.37"/><path class="cls-6" d="M170.56,318.53c3.45,0,6.24-1.52,6.24-3.39s-2.79-3.39-6.24-3.39-6.24,1.52-6.24,3.39,2.79,3.39,6.24,3.39Zm23.33,13.24c3.45,0,6.24-1.52,6.24-3.39s-2.8-3.39-6.24-3.39-6.24,1.52-6.24,3.39,2.79,3.39,6.24,3.39Zm18.91-12.5c0-1.87,2.79-3.39,6.24-3.39s6.24,1.52,6.24,3.39-2.8,3.39-6.24,3.39-6.24-1.52-6.24-3.39Z"/><path class="cls-8" d="M215.81,148.11c0,5.14-1.73,9.18-5.18,12.1-3.46,2.92-7.86,4.63-13.21,5.13v6.24h-5.92v-6.13c-3.95-.22-7.54-.84-10.79-1.9-3.23-1.06-5.88-2.25-7.92-3.6l2-13.21,9.41,.74-.53,6.87c2.33,1.2,4.94,1.9,7.83,2.12v-16.28c-4.37-.84-8.49-2.15-12.37-3.91-3.88-1.76-5.81-5.5-5.81-11.21s1.9-9.57,5.71-12c3.8-2.43,7.96-3.82,12.47-4.17v-6.87h5.92v6.87c3.31,.28,6.29,.88,8.93,1.8,2.64,.91,4.88,2,6.72,3.28l1.05,13-9.4,.74-1.27-7.92c-1.76-.92-3.77-1.55-6.02-1.91v13.64c2.18,.42,4.72,1.13,7.61,2.11,2.88,.99,5.4,2.59,7.55,4.81s3.23,5.44,3.23,9.68Zm-30.34-24.31c0,1.75,.57,3.13,1.69,4.12s2.57,1.73,4.34,2.22v-12.15c-4.02,.71-6.03,2.64-6.03,5.81Zm18.29,25.57c0-2.12-.6-3.75-1.8-4.91s-2.71-2.1-4.54-2.8v14.69c4.22-.84,6.34-3.17,6.34-6.98Z"/><g><path class="cls-5" d="M148.3,250.39c-1-9.54-5.93-37.36-37.18-37.36l-7.25,.22-15.27-45.35c-3.19-9.46-13.44-14.54-22.89-11.36h0c-2.64,.89-4.92,2.34-6.79,4.16l-3.08-58.61c0-9.8-7.62-18.14-17.41-18.49-10.28-.37-18.73,7.86-18.73,18.06v102.78c0,6.03,1.95,11.89,5.57,16.72l52.9,70.55c3.25,4.34,8.36,6.89,13.79,6.89h42.99c6.82,0,12.46-5.09,13.32-11.68,.13-.99,.15-35.53,.05-36.53Z"/><path class="cls-5" d="M74.59,239.54l-20.25-60.11c-3.19-9.46,1.9-19.71,11.36-22.89h0c9.46-3.19,19.71,1.9,22.89,11.36"/><path class="cls-5" d="M65.95,88.63s5.05,0,5.05,8.55c0,7.94,2.38,56.84,2.38,56.84"/><path class="cls-5" d="M81.31,98.44s5.05,0,5.05,8.55c0,7.94,2.24,60.9,2.24,60.9"/><path class="cls-5" d="M97.2,118.51s5.05,0,5.05,8.55c0,7.94,1.63,86.18,1.63,86.18"/></g><g><path class="cls-5" d="M250.14,286.91c.86,6.59,6.49,11.68,13.32,11.68h11.1s20.28,0,20.28,0h11.6c5.42,0,10.53-2.55,13.79-6.89l52.9-70.55c3.62-4.82,5.57-10.69,5.57-16.72V101.65c0-10.2-8.45-18.42-18.73-18.06-9.79,.35-17.41,8.69-17.41,18.49l-3.08,58.61c-1.87-1.82-4.15-3.27-6.79-4.16h0c-9.46-3.19-19.71,1.9-22.89,11.36l-15.27,45.35-7.25-.22c-31.25,0-36.17,27.83-37.18,37.36-.1,1-.08,35.54,.05,36.53Z"/><path class="cls-5" d="M323.8,239.54l20.25-60.11c3.19-9.46-1.9-19.71-11.36-22.89h0c-9.46-3.19-19.71,1.9-22.89,11.36"/><path class="cls-5" d="M332.45,88.63s-5.05,0-5.05,8.55c0,7.94-2.38,56.84-2.38,56.84"/><path class="cls-5" d="M317.08,98.44s-5.05,0-5.05,8.55c0,7.94-2.24,60.9-2.24,60.9"/><path class="cls-5" d="M301.2,118.51s-5.05,0-5.05,8.55c0,7.94-1.63,86.18-1.63,86.18"/></g></svg>