<svg width="100" height="100" fill="none" xmlns="http://www.w3.org/2000/svg"><g clip-path="url(#a)"><path d="M93.69 31.84H64.13C70.5 28.91 77 24.53 79.57 22A12.6 12.6 0 1 0 61.76 4.17C58.53 7.4 52.37 17 49.92 24.6 47.46 17 41.31 7.4 38.08 4.17A12.604 12.604 0 1 0 20.26 22c2.55 2.55 9.07 6.93 15.44 9.86H6.31A6.32 6.32 0 0 0 0 38.16v17.9a6.32 6.32 0 0 0 6.31 6.31h2a6.28 6.28 0 0 0-.38 2.13v29.66a6.32 6.32 0 0 0 6.32 6.32h71.51a6.314 6.314 0 0 0 5.839-3.901 6.32 6.32 0 0 0 .481-2.419V64.5a6.282 6.282 0 0 0-.38-2.13h2a6.32 6.32 0 0 0 6.3-6.31v-17.9a6.32 6.32 0 0 0-6.31-6.32ZM56.84 58.18H42.77V37.32h14.07v20.86Zm-.53-38.51C59 14.19 62.66 8.93 64.59 7a8.591 8.591 0 1 1 12.15 12.15c-3.74 3.76-17.1 11.72-23.1 11.72a3.512 3.512 0 0 1-.72-.06c-.22-.95.01-4.37 3.39-11.14ZM23.09 7a8.59 8.59 0 0 1 12.16 0c1.93 1.93 5.55 7.19 8.28 12.67 3.37 6.77 3.6 10.19 3.38 11.14a3.396 3.396 0 0 1-.71.06c-6 0-19.35-8-23.11-11.72a8.6 8.6 0 0 1 0-12.15ZM4 56.06v-17.9a2.32 2.32 0 0 1 2.31-2.32h32.46v22.34H14.24a6.312 6.312 0 0 0-1.51.19H6.31A2.32 2.32 0 0 1 4 56.06Zm10.24 40.42a2.32 2.32 0 0 1-2.32-2.32V64.5a2.33 2.33 0 0 1 1.41-2.13h28.41v34.11h-27.5Zm31.5 0V62.37h7.95v34.11h-7.95Zm42.34-32v29.68a2.32 2.32 0 0 1-2.32 2.32H57.69V62.37h29a2.33 2.33 0 0 1 1.39 2.13v-.02ZM96 56.06a2.32 2.32 0 0 1-2.31 2.31h-6.42c-.494-.124-1-.188-1.51-.19H60.84V35.84h32.85A2.32 2.32 0 0 1 96 38.16v17.9Z" fill="#333"/></g><defs><clipPath id="a"><path fill="#fff" d="M0 0h100v100H0z"/></clipPath></defs></svg>