<svg id="Layer_1" xmlns="http://www.w3.org/2000/svg" viewBox="0 0 400 400"><defs><style>.cls-2{fill:#add7f3}.cls-4{fill:#08b6a9}.cls-5,.cls-6{stroke-linecap:round}.cls-5,.cls-6,.cls-7{fill:none;stroke:#010101;stroke-width:8px}.cls-5,.cls-7{stroke-miterlimit:10}.cls-6{stroke-linejoin:round}</style></defs><path class="cls-2" d="M296.36 275.26a13.992 13.992 0 0 1-7.88 7.68l-98.2 37.03a24.028 24.028 0 0 1-15.08.74L88.69 297.1a13.31 13.31 0 0 1-8.77-7.95L68.4 258.46c-1.69-4.36.09-9.34 4.15-11.62 2.36-1.03 30.95-12.17 33.36-13 12.25-3.31 34.07-5.23 43.4 18.69l2.4 6.78c.59 1.66 2.22 2.75 3.95 2.66l47.81-2.18c4.38-.2 8.37 1.62 11.09 4.62 2.11 2.34 3.46 5.4 3.61 8.79.02.51.02 1.01-.02 1.51 0 .1-.02.19-.03.29-.04.42-.08.83-.15 1.25-.01.06-.03.12-.04.19-.09.46-.19.91-.33 1.36 0 .02-.01.04-.02.05-.15.49-.32.97-.52 1.45-2.05 4.84-6.72 8.35-12.31 8.6l-63.36 2.89c-2.21.1-3.92 1.97-3.81 4.18a4 4 0 0 0 3.99 3.82h.18l63.36-2.89c8.09-.37 14.98-5.08 18.52-11.77l54.11-17.81c.07-.02.13-.05.2-.07 7.2-2.79 15.46.52 18.42 7.39 1.53 3.55 1.5-1.9.01 1.65ZM179.03 113.05c-2.02 0-3.72-2.26-3.72-4.94v-3.05c0-2.68 1.7-4.94 3.72-4.94h47.04c2.02 0 3.72 2.26 3.72 4.94v3.05c0 2.68-1.7 4.94-3.72 4.94h-47.04Z"/><path class="cls-4" d="M179.52 75.12c.93-1.13 2.3-1.78 3.76-1.78s2.83.65 3.76 1.78l6.05 7.38v.01c.06.09.14.15.21.22.09.09.16.18.26.26.35.29.75.5 1.17.62.1.03.2.04.29.06.11.02.23.05.34.07h.27c.13 0 .26.01.38 0 .06 0 .13-.03.19-.04.15-.02.3-.04.45-.09.21-.06.41-.14.61-.25.02 0 .04-.03.05-.04.18-.1.35-.21.51-.34.1-.09.19-.19.28-.28.06-.06.13-.12.19-.19s0-.02 0-.02l6.05-7.38c.93-1.13 2.3-1.78 3.76-1.78s2.83.65 3.76 1.78l6.06 7.38h.01s.05.05.07.08c.12.14.25.28.4.4.01.01.03.02.05.03.08.06.16.11.24.16.12.08.24.16.37.22.09.04.17.07.26.11a2.67 2.67 0 0 0 .68.18c.14.02.27.04.41.04.05 0 .1.02.14.02.07 0 .13-.01.2-.02.08 0 .15 0 .23-.02.13-.02.26-.04.4-.08.07-.02.14-.03.2-.05.14-.04.27-.1.4-.16.06-.03.12-.05.18-.08.15-.08.29-.18.43-.28.03-.03.07-.04.1-.07h.01c.11-.09.19-.19.28-.28.06-.06.13-.11.18-.18s0-.02 0-.02l6.05-7.38c.93-1.13 2.3-1.78 3.76-1.78s2.83.65 3.81 1.84c2.59 3.16 2.78 7.71.45 11.07l-6.3 9.08c-.95-.33-1.95-.52-2.99-.52h-39.66c-1.04 0-2.05.18-3 .52l-6.3-9.08c-2.33-3.36-2.15-7.91.5-11.13ZM128.41 227.86c-3.39-39.11 34.01-68.85 34.01-68.85l37.23-41.16h29.56l31.71 37.99 8.01 8.86c.22.18 32.58 30.78 21.7 64.73-7.79 24.3-25.18 45.84-66.57 48.84 0 0-1.91-23.99-27.32-22.51s-41.25 2.2-41.25 2.2-4.71-28.81-22.1-28.53l-4.97-1.56Z"/><path d="M199.75 229.39c-2.21 0-4-1.79-4-4v-2.48c-2.86-.36-5.55-.95-8.03-1.75-3.63-1.19-6.54-2.51-8.88-4.06-1.3-.86-1.99-2.4-1.76-3.94l2-13.21c.3-1.97 1.99-3.4 3.95-3.4.11 0 .21 0 .32.01l9.41.74c1.25.1 2.32.76 2.98 1.72v-1.81c-3.47-.87-6.83-2.03-10.02-3.47-3.73-1.7-8.17-5.65-8.17-14.85 0-8.71 4.11-13.17 7.56-15.37 3.29-2.1 6.86-3.54 10.63-4.28v-3.39c0-2.21 1.79-4 4-4h5.92c2.21 0 4 1.79 4 4v3.34c2.24.37 4.33.89 6.25 1.55 2.96 1.02 5.55 2.29 7.68 3.76.99.68 1.62 1.77 1.71 2.97l1.05 13c.08 1.06-.25 2.11-.94 2.92s-1.67 1.31-2.73 1.39l-4.69.37c2.11 1.13 4.02 2.57 5.72 4.33 2.89 2.98 4.35 7.17 4.35 12.46 0 6.35-2.22 11.45-6.59 15.15-3.25 2.75-7.21 4.6-11.8 5.53v2.78c0 2.21-1.79 4-4 4h-5.92Z" style="fill:#d6edea"/><path d="M205.67 155.84v6.87c3.31.28 6.29.88 8.93 1.8 2.64.91 4.88 2 6.72 3.28l1.05 13-9.4.74-1.27-7.92c-1.76-.92-3.77-1.55-6.02-1.91v13.64c2.18.42 4.72 1.13 7.61 2.11 2.88.99 5.4 2.59 7.55 4.81s3.23 5.44 3.23 9.68c0 5.14-1.73 9.18-5.18 12.1-3.46 2.92-7.86 4.63-13.21 5.13v6.24h-5.92v-6.13c-3.95-.22-7.54-.84-10.79-1.9-3.23-1.06-5.88-2.25-7.92-3.6l2-13.21 9.41.74-.53 6.87c2.33 1.2 4.94 1.9 7.83 2.12v-16.28c-4.37-.84-8.49-2.15-12.37-3.91-3.88-1.76-5.81-5.5-5.81-11.21s1.9-9.57 5.71-12c3.8-2.43 7.96-3.82 12.47-4.17v-6.87h5.92m-5.92 28.12v-12.15c-4.02.71-6.03 2.64-6.03 5.81 0 1.75.57 3.13 1.69 4.12 1.13.99 2.57 1.73 4.34 2.22m5.92 26.21c4.22-.84 6.34-3.17 6.34-6.98 0-2.12-.6-3.75-1.8-4.91-1.2-1.16-2.71-2.1-4.54-2.8v14.69m0-62.33h-5.92c-4.42 0-8 3.58-8 8v.27c-3.07.92-6.01 2.27-8.78 4.03-4.29 2.74-9.41 8.22-9.41 18.74 0 7.32 2.48 11.95 5.3 14.85a7.988 7.988 0 0 0-3.73 5.62l-2 13.21c-.47 3.09.9 6.17 3.51 7.88 2.64 1.74 5.86 3.22 9.83 4.52 1.69.55 3.47 1.01 5.33 1.37.47 3.97 3.85 7.06 7.95 7.06h5.92c4.31 0 7.82-3.4 7.99-7.67 3.93-1.2 7.4-3.06 10.39-5.59 5.24-4.45 8.01-10.74 8.01-18.21 0-6.05-1.67-10.99-4.97-14.69.5-.36.95-.79 1.36-1.26a8.007 8.007 0 0 0 1.89-5.83l-1.05-13a8.018 8.018 0 0 0-3.42-5.94c-2.43-1.68-5.35-3.12-8.66-4.26-1.13-.39-2.31-.74-3.54-1.04v-.07c0-4.42-3.58-8-8-8Z" style="fill:#010101"/><path class="cls-6" d="M70.74 243.25c-5.83 3.19-8.54 10.28-6.07 16.64l4.02 10.35 7.34 18.91 4.2 10.81a17.23 17.23 0 0 0 11.42 10.36l84.91 23.77a27.847 27.847 0 0 0 17.6-.86l95.81-37.2c9.51-3.69 14.12-14.55 10.05-24-3.87-9-14.41-13.08-23.54-9.54l-55.75 18.34a18.11 18.11 0 0 0 1.42-7.83h0c-.45-9.97-8.9-17.68-18.87-17.23l-47.81 2.18-2.42-6.84c-11.31-29.13-39.03-23.65-48.29-21.13-.97.26-33.15 12.79-34.03 13.27Z"/><path class="cls-6" d="m141.57 294.76 63.36-2.89c9.97-.45 17.68-8.9 17.23-18.87h0c-.45-9.97-8.9-17.68-18.87-17.23"/><path class="cls-7" d="M226.01 96.32h-47.04c-4.26 0-7.72 4-7.72 8.94v3.05c0 4.94 3.46 8.94 7.72 8.94H226c4.26 0 7.72-4 7.72-8.94v-3.05c0-4.94-3.46-8.94-7.72-8.94Z"/><path class="cls-5" d="m187.75 75.2 7.2-8.77c3.9-4.76 11.18-4.76 15.09 0l7.2 8.77M187.75 75.2l-7.2-8.77c-3.9-4.76-11.18-4.76-15.09 0l-.06.07a14.893 14.893 0 0 0-.72 17.95l8.47 12.21M217.24 75.2l7.2-8.77c3.9-4.76 11.18-4.76 15.09 0l.06.07c4.23 5.15 4.52 12.48.72 17.95l-8.47 12.21"/><path class="cls-7" d="M109.92 227.86c0-43.66 26.03-63.16 26.03-63.16l42.92-47.45M226.01 117.25l42.92 47.45s26.03 21.57 26.03 56.12c0 0 1.58 35.08-36.32 47.55"/><path class="cls-6" d="M70.74 243.25c-5.83 3.19-8.54 10.28-6.07 16.64l4.02 10.35 7.34 18.91 4.2 10.81a17.23 17.23 0 0 0 11.42 10.36l84.91 23.77a27.847 27.847 0 0 0 17.6-.86l95.81-37.2c9.51-3.69 14.12-14.55 10.05-24-3.87-9-14.41-13.08-23.54-9.54l-55.75 18.34a18.11 18.11 0 0 0 1.42-7.83h0c-.45-9.97-8.9-17.68-18.87-17.23l-47.81 2.18-2.42-6.84c-11.31-29.13-39.03-23.65-48.29-21.13-.97.26-33.15 12.79-34.03 13.27Z"/><path class="cls-6" d="m141.57 294.76 63.36-2.89c9.97-.45 17.68-8.9 17.23-18.87h0c-.45-9.97-8.9-17.68-18.87-17.23"/><path class="cls-5" d="M63.76 177.88h36.42M307.62 177.88h36.41M267.45 125.92l25.75-25.74M122.8 127.78l-25.75-25.75"/></svg>