<?xml version="1.0" encoding="UTF-8"?><svg id="Layer_1" xmlns="http://www.w3.org/2000/svg" viewBox="0 0 400 400"><defs><style>.cls-1,.cls-2{fill:#84c7ee;}.cls-3{fill:#d6edea;}.cls-4{fill:#08b6a9;}.cls-5{stroke-linecap:round;}.cls-5,.cls-2,.cls-6{stroke:#010101;stroke-miterlimit:10;stroke-width:8px;}.cls-5,.cls-6{fill:none;}</style></defs><path class="cls-5" d="M138.86,284.01c.16-19.1,.16-40.79,0-59.71m124.78-8.2c.16,38.53,.16,73.74,.16,112.14,0,3.43-3.43,6.17-6.86,6.17-24.68,.46-44.9,.3-69.58,.15m-23.32-55.22h82.22m-82.22-18.38h82.22"/><path class="cls-3" d="M161.57,204.04s-55.58-44.64-43.88-82.27c11.7-37.63,57.28-62.57,92.81-26.29,0,0,31.58-35.1,71.65,0,40.08,35.1,11.67,72.87,11.67,72.87,0,0,7.07,31.83-21.93,31.83-2.83,17.69-65.44,47.75-110.32,3.86Z"/><path class="cls-4" d="M267.8,119.7s5.3,34.15-8.59,33.1c-31.39-2.36-46.52-29.17-46.52-29.17,0,0,34.56,16.21,55.11-3.93Z"/><path class="cls-5" d="M211.56,121.9c6.64,14.1,20.88,21.47,34.42,27.06,11.93,4.93,24.5,8.05,36.39,13.08,3.57,1.51,7.21,3.3,9.65,6.41,6.64,8.46,2.94,23.1-5.9,28.29-4.73,2.77-10.48,3.22-15.85,2.34-7.76-1.26-15.88-4.51-23.23-7.31-8.4-3.2-16.53-7.1-24.34-11.62m-5.63,55.75s6.03,1.54,8.93,1.24c5.21-.53,9.73-6.05,9.45-9.34,0,0,6.28,2.21,18.86-10.05"/><path class="cls-6" d="M158.17,219.6c-41.14-21.15-80.82-71.04-53.13-123.3,17.84-33.67,67.55-48.69,97.02-18.73"/><path class="cls-5" d="M271.7,199.97s-1.17,18.02-15.36,17.69c-14.19-.33-40.19-14.85-40.19-14.85m19.43,25.42l-10.35-4.76"/><path class="cls-6" d="M137.52,207.81s-4.93,7.78,1.4,14.38c6.33,6.6,13.38,5.9,18.19-3.13"/><path class="cls-5" d="M293.64,168.47c28.62-36.65,10.26-92.89-33.41-104.09-14.03-3.6-29.16-2.14-42.38,3.89-31.8,14.5-50.75,44.54-56.88,79.56-.44,2.5-.79,5.18,.21,7.5,2.52,5.86,12.45,3.02,16.28,.41,11.71-7.96,9.45-26.35,22.53-33.08,6.84-3.52,13.29-1.02,19.44,2.46,12.17,6.9,27.94,10.28,40.22,1.81,6.3-4.34,10.65-10.96,13.75-17.85"/><path class="cls-5" d="M187.17,122.9s3.28,4.51,2.12,12.04"/><path class="cls-1" d="M209.77,305.41v46.34c0,1.96,2.29,3.02,3.79,1.76l10.79-9.1c.75-.64,1.87-.6,2.58,.08l10.18,9.7c1.47,1.4,3.89,.36,3.89-1.67v-47.11"/><path class="cls-6" d="M209.77,305.41v46.34c0,1.96,2.29,3.02,3.79,1.76l10.79-9.1c.75-.64,1.87-.6,2.58,.08l10.18,9.7c1.47,1.4,3.89,.36,3.89-1.67v-47.11"/><path class="cls-2" d="M225.46,328.67c11.21,0,20.3-9.12,20.3-20.38s-9.09-20.38-20.3-20.38-20.31,9.12-20.31,20.38,9.09,20.38,20.31,20.38Z"/></svg>