<svg width="218" height="300" fill="none" xmlns="http://www.w3.org/2000/svg"><path d="M46.214 225.747c.159-19.102.159-40.791 0-59.711M170.994 157.836c.163 38.529.163 73.742.163 112.138 0 3.428-3.428 6.17-6.856 6.17-24.683.457-44.897.305-69.58.153M71.398 221.079h82.221M71.398 202.698h82.221" stroke="#000" stroke-width="8" stroke-miterlimit="10" stroke-linecap="round"/><path d="M68.932 145.779S13.35 101.143 25.047 63.513C36.743 25.883 82.323.942 117.859 37.22c0 0 31.576-35.098 71.653 0 40.078 35.099 11.674 72.866 11.674 72.866s7.074 31.833-21.929 31.833c-2.83 17.686-65.438 47.75-110.325 3.86Z" fill="#D5EDEA"/><path d="M175.155 61.437s5.297 34.146-8.588 33.103c-31.392-2.358-46.52-29.17-46.52-29.17s34.562 16.212 55.108-3.933Z" fill="#00B7AA"/><path d="M118.922 63.636c6.642 14.103 20.883 21.475 34.421 27.062 11.934 4.925 24.498 8.052 36.39 13.084 3.573 1.512 7.211 3.296 9.653 6.41 6.639 8.464 2.941 23.105-5.905 28.287-4.731 2.771-10.476 3.216-15.849 2.339-7.76-1.265-15.877-4.506-23.229-7.306-8.395-3.198-16.534-7.103-24.338-11.621M124.433 177.643s6.026 1.535 8.933 1.239c5.215-.531 9.733-6.051 9.451-9.339 0 0 6.28 2.21 18.862-10.053" stroke="#000" stroke-width="8" stroke-miterlimit="10" stroke-linecap="round"/><path d="M65.528 161.338c-41.142-21.155-80.815-71.035-53.13-123.304C30.234 4.361 79.95-10.659 109.413 19.301" stroke="#000" stroke-width="8" stroke-miterlimit="10"/><path d="M179.061 141.7s-1.17 18.02-15.362 17.687c-14.192-.333-40.195-14.855-40.195-14.855M142.936 169.954l-10.351-4.755" stroke="#000" stroke-width="8" stroke-miterlimit="10" stroke-linecap="round"/><path d="M44.876 149.549s-4.932 7.779 1.396 14.378c6.328 6.6 13.383 5.899 18.193-3.135" stroke="#000" stroke-width="8" stroke-miterlimit="10"/><path d="M200.996 110.204c28.622-36.652 10.261-92.89-33.408-104.086-14.028-3.596-29.161-2.138-42.38 3.89-31.8 14.501-50.751 44.543-56.882 79.558-.438 2.498-.785 5.178.213 7.495 2.522 5.856 12.449 3.016 16.282.409 11.71-7.963 9.447-26.346 22.534-33.078 6.84-3.52 13.294-1.023 19.441 2.462 12.17 6.9 27.942 10.281 40.225 1.806 6.296-4.343 10.655-10.964 13.751-17.846" stroke="#000" stroke-width="8" stroke-miterlimit="10" stroke-linecap="round"/><path d="M94.53 64.631s3.278 4.513 2.116 12.043" stroke="#000" stroke-width="8" stroke-miterlimit="10" stroke-linecap="round"/><path d="M117.127 247.141v46.335c0 1.96 2.291 3.025 3.789 1.762l10.791-9.099a1.935 1.935 0 0 1 2.582.079l10.178 9.701c1.467 1.397 3.894.358 3.894-1.668v-47.11" fill="#82C7EE"/><path d="M117.127 247.141v46.335c0 1.96 2.291 3.025 3.789 1.762l10.791-9.099a1.935 1.935 0 0 1 2.582.079l10.178 9.701c1.467 1.397 3.894.358 3.894-1.668v-47.11" stroke="#000" stroke-width="8" stroke-miterlimit="10"/><path d="M132.814 270.4c11.214 0 20.305-9.125 20.305-20.381 0-11.257-9.091-20.382-20.305-20.382s-20.305 9.125-20.305 20.382c0 11.256 9.091 20.381 20.305 20.381Z" fill="#82C7EE" stroke="#000" stroke-width="8" stroke-miterlimit="10"/></svg>