<svg id="Layer_1" xmlns="http://www.w3.org/2000/svg" viewBox="0 0 400 400"><defs><style>.cls-4{fill:#add7f3}.cls-5{fill:#08b6a9}.cls-8{stroke:#010101;stroke-miterlimit:10;stroke-width:8px;stroke-linecap:round;fill:none}</style></defs><path class="cls-4" d="M257.29 303.94H145.22c-5.06 0-9.17 4.75-9.17 10.61v3.62c0 5.86 4.11 10.61 9.17 10.61h112.07c5.06 0 9.17-4.75 9.17-10.61v-3.62c0-5.86-4.1-10.62-9.17-10.62Zm-7.49 25.31h-97.08c-4.39 0-7.94 4.75-7.94 10.61v3.62c0 5.86 3.56 10.61 7.94 10.61h97.08c4.39 0 7.94-4.75 7.94-10.61v-3.62c0-5.86-3.56-10.61-7.94-10.61Z"/><path d="M282.75 222.07c1.73 1.75 3.69 3.25 5.83 4.46l-.88 8.61 11 2.73 3.2-7.86c2.55 0 5.08-.38 7.53-1.11l5.17 6.44 9.77-6.03-3.05-7.55c1.88-1.91 3.48-4.07 4.76-6.43l7.93.75 2.81-11.26-7.29-3.02c.01-2.71-.37-5.41-1.13-8.01l6.14-5.15-5.79-9.89-7.38 3.18a26.605 26.605 0 0 0-6.32-4.67l.84-8.18-11-2.73-3.17 7.77c-2.57.07-5.09.51-7.49 1.28l-5.24-6.53-9.77 6.03 3.22 7.97a28.375 28.375 0 0 0-4.35 6.07l-8.51-.8-2.81 11.26 7.95 3.29c.02 2.46.37 4.91 1.03 7.28l-6.7 5.62 5.79 9.89 7.91-3.41Zm5.26-28.15c4.56-8.04 14.61-10.86 22.43-6.3s10.47 14.77 5.91 22.81-14.61 10.86-22.43 6.3c-7.83-4.56-10.47-14.77-5.91-22.81Z" style="stroke:#010101;stroke-miterlimit:10;stroke-width:8px;fill:#d6edea"/><path d="M169.69 240.52c.34-4 .12-8.03-.65-11.97l11.71-7.83-8.34-16.68-13.25 4.12c-2.74-3.2-5.91-6-9.42-8.32l2.53-13.19-17.97-6.04-6.18 11.68c-4.38-.39-8.8-.16-13.12.69l-7.53-10.75-17.07 8.15 4.01 12.31a44.67 44.67 0 0 0-8.81 9.75l-13-2.38-6.18 17.55 11.86 5.99c-.33 4.28-.02 8.6.91 12.79l-11.11 7.43 8.34 16.68 13.1-4.08c2.81 3.13 6.04 5.86 9.6 8.1l-2.56 13.37 17.97 6.04 6.52-12.32c4.05.26 8.16 0 12.23-.83l8.08 11.54 17.07-8.15-4.38-13.43c3.05-2.58 5.74-5.55 8-8.85l14.18 2.6 6.18-17.55-12.71-6.42Zm-45.53 22.25c-14.75 0-26.71-11.68-26.71-26.09s11.96-26.09 26.71-26.09 26.71 11.68 26.71 26.09-11.96 26.09-26.71 26.09Z" style="fill:#56c3b8;stroke:#010101;stroke-miterlimit:10;stroke-width:8px"/><path d="M272.63 234.86c-7.62 10.41-28.32 23.86-15.18 66.8H145.31s11.75-36.46-24.75-77.37c-54.24-60.8-15.52-172.16 87.67-169.73 37.38.88 77.99 28.52 88.71 53.66 0 0 30.67 51.52-24.31 126.64Z" style="fill:#f5fbfd"/><path class="cls-4" d="M174.77 297.36c-2.29-17.61-9.94-43.41-32.88-69.92-18.33-21.19-22.45-52.65-10.5-80.15 12.65-29.11 39.45-45.8 73.53-45.8.88 0 1.75.01 2.64.03 27.45.67 57.19 23.16 63.09 37.42l1.02 2.46.58.85c2.06 4.35 17.61 41.54-22.68 98.29-.37.52-1.6 1.96-2.49 3.01-5.24 6.13-14 16.4-18.87 32.24-2.11 6.87-3.31 14.04-3.57 21.57h-49.87Z"/><path d="M272.63 234.86c-7.62 10.41-28.32 23.86-15.18 66.8H145.31s11.75-36.46-24.75-77.37c-54.24-60.8-15.52-172.16 87.67-169.73 37.38.88 77.99 28.52 88.71 53.66 0 0 30.67 51.52-24.31 126.64Zm-15.67 68.6H145.58c-5.24 0-9.49 4.8-9.49 10.71v3.94c0 5.92 4.25 10.71 9.49 10.71h111.38c5.24 0 9.49-4.79 9.49-10.71v-3.94c0-5.91-4.25-10.71-9.49-10.71Zm-8.8 25.71h-95.28c-4.48 0-8.12 4.79-8.12 10.71v3.94c0 5.91 3.64 10.71 8.12 10.71h95.28c4.48 0 8.12-4.8 8.12-10.71v-3.94c0-5.92-3.63-10.71-8.12-10.71Z" style="fill:none;stroke:#010101;stroke-miterlimit:10;stroke-width:8px"/><path d="M239.37 301.67c4.24 0 7.38-4.62 6.49-9.49-3.71-20.32-19.11-35.26-37.58-35.26h-15.97c-18.46 0-33.86 15.05-37.57 35.39-.89 4.89 2.26 9.5 6.51 9.49l78.12-.13Z" style="fill:#84c7ee"/><path class="cls-5" d="M196.02 183.05s-56.43 12.86-68.58-56.43c0 0 77.15 7.14 68.58 56.43Z"/><path class="cls-5" d="M200.27 180.43s-16.4-60.96 83.61-63.81c0 0-23.57 84.29-83.61 63.81Z"/><path class="cls-8" d="M199.94 181.03s-15.43-60.69 83.7-64.33c0 0-22.48 84.82-83.7 64.33h0Z"/><path class="cls-8" d="M196.06 181.24s-55.28 14.76-68.67-56.26c0 0 81.51 9.51 68.67 56.26Zm1.34-.86.22 90.8m4.8-95.94 53.43-38.35m-58.43 43.9-52.65-39.37m94.95 160.8c4.29 0 7.47-4.78 6.57-9.82-3.75-21.03-19.33-36.48-38.01-36.48h-16.15c-18.68 0-34.25 15.57-38.01 36.62-.9 5.06 2.29 9.83 6.59 9.82l79.02-.14h0Z"/><path d="M175.97 277.96c3.45 0 6.24-1.52 6.24-3.39s-2.79-3.39-6.24-3.39-6.24 1.52-6.24 3.39 2.79 3.39 6.24 3.39Zm23.33 13.24c3.45 0 6.24-1.52 6.24-3.39s-2.8-3.39-6.24-3.39-6.24 1.52-6.24 3.39 2.79 3.39 6.24 3.39Zm18.91-12.5c0-1.87 2.79-3.39 6.24-3.39s6.24 1.52 6.24 3.39-2.8 3.39-6.24 3.39-6.24-1.52-6.24-3.39Z" style="fill:#010101"/></svg>
