<svg width="284" height="309" fill="none" xmlns="http://www.w3.org/2000/svg"><path d="M196.22 253.836H84.151c-5.064 0-9.169 4.753-9.169 10.615v3.62c0 5.863 4.105 10.615 9.17 10.615H196.22c5.064 0 9.169-4.752 9.169-10.615v-3.62c0-5.862-4.105-10.615-9.169-10.615ZM188.725 279.149h-97.08c-4.386 0-7.942 4.752-7.942 10.615v3.62c0 5.863 3.556 10.615 7.942 10.615h97.08c4.387 0 7.943-4.752 7.943-10.615v-3.62c0-5.863-3.556-10.615-7.943-10.615Z" fill="#ACD7F3"/><path d="M221.683 171.969a26.844 26.844 0 0 0 5.831 4.461l-.881 8.61 11.003 2.731 3.204-7.858a26.843 26.843 0 0 0 7.526-1.106l5.17 6.441 9.767-6.027-3.055-7.552a28.217 28.217 0 0 0 4.756-6.428l7.926.748 2.81-11.255-7.293-3.02a28.138 28.138 0 0 0-1.134-8.015l6.142-5.154-5.794-9.89-7.38 3.18a26.779 26.779 0 0 0-6.316-4.667l.837-8.176-11.003-2.731-3.169 7.771c-2.57.07-5.089.508-7.492 1.279l-5.239-6.527-9.767 6.028 3.223 7.967a28.163 28.163 0 0 0-4.345 6.067l-8.506-.803-2.809 11.255 7.954 3.294a28.12 28.12 0 0 0 1.028 7.276l-6.697 5.619 5.794 9.89 7.909-3.408Zm5.256-28.155c4.563-8.039 14.607-10.859 22.434-6.299 7.827 4.56 10.473 14.773 5.91 22.812-4.563 8.039-14.607 10.86-22.434 6.3-7.827-4.56-10.473-14.774-5.91-22.813Z" fill="#D5EDEA" stroke="#000" stroke-width="8" stroke-miterlimit="10"/><path d="M108.627 190.418a43.51 43.51 0 0 0-.652-11.966l11.707-7.827-8.338-16.681-13.247 4.124a45.174 45.174 0 0 0-9.422-8.324l2.53-13.19-17.968-6.035-6.179 11.681a46.638 46.638 0 0 0-13.117.686l-7.53-10.751-17.074 8.146 4.014 12.31a44.85 44.85 0 0 0-8.81 9.747l-13.004-2.381-6.177 17.555 11.86 5.988a43.501 43.501 0 0 0 .91 12.79l-11.115 7.432 8.337 16.681 13.101-4.078a45.299 45.299 0 0 0 9.602 8.101l-2.564 13.367 17.969 6.035 6.518-12.324c4.047.26 8.158-.004 12.227-.828l8.081 11.536 17.073-8.146-4.378-13.427a44.839 44.839 0 0 0 8-8.845l14.178 2.596 6.177-17.555-12.709-6.417Zm-45.526 22.245c-14.75 0-26.707-11.683-26.707-26.093 0-14.411 11.957-26.093 26.707-26.093s26.707 11.682 26.707 26.093c0 14.41-11.957 26.093-26.707 26.093Z" fill="#54C2B8" stroke="#000" stroke-width="8" stroke-miterlimit="10"/><path d="M211.566 184.756c-7.622 10.413-28.319 23.863-15.176 66.801H84.255S96 215.1 59.507 174.187C5.272 113.382 43.987 2.027 147.173 4.457c37.378.881 77.99 28.525 88.705 53.664 0 0 30.668 51.52-24.312 126.635Z" fill="#F5FAFC"/><path d="M113.708 247.256c-2.287-17.61-9.944-43.409-32.878-69.917-18.33-21.188-22.453-52.65-10.5-80.153 12.65-29.108 39.453-45.804 73.534-45.804.876 0 1.749.011 2.637.033 27.446.666 57.195 23.163 63.091 37.425l1.017 2.461.577.85c2.061 4.35 17.614 41.543-22.677 98.294-.372.524-1.597 1.959-2.491 3.006-5.235 6.132-13.996 16.397-18.867 32.235-2.114 6.872-3.306 14.04-3.573 21.57h-49.87Z" fill="#ACD7F3"/><path d="M211.566 184.756c-7.622 10.413-28.319 23.863-15.176 66.801H84.255S96 215.1 59.507 174.187C5.272 113.382 43.987 2.027 147.173 4.457c37.378.881 77.99 28.525 88.705 53.664 0 0 30.668 51.52-24.312 126.635ZM195.896 253.357H84.516c-5.242 0-9.492 4.795-9.492 10.709v3.936c0 5.915 4.25 10.709 9.493 10.709h111.379c5.243 0 9.493-4.794 9.493-10.709v-3.936c0-5.914-4.25-10.709-9.493-10.709ZM187.097 279.065H91.822c-4.484 0-8.12 4.794-8.12 10.709v3.936c0 5.914 3.636 10.709 8.12 10.709h95.275c4.484 0 8.119-4.795 8.119-10.709v-3.936c0-5.915-3.635-10.709-8.119-10.709Z" stroke="#000" stroke-width="8" stroke-miterlimit="10"/><path d="M178.301 251.569c4.241-.007 7.381-4.616 6.491-9.494-3.706-20.322-19.109-35.255-37.577-35.255h-15.968c-18.463 0-33.864 15.046-37.574 35.391-.892 4.886 2.262 9.499 6.51 9.492l78.118-.134Z" fill="#82C7EE"/><path d="M134.952 132.943S78.519 145.801 66.376 76.51c0 0 77.148 7.144 68.576 56.433Z" fill="#00B7AA"/><path d="M139.204 130.322s-16.396-60.955 83.611-63.812c0 0-23.573 84.291-83.611 63.812Z" fill="#00B7AA"/><path d="M138.875 130.927s-15.434-60.689 83.701-64.334c0 0-22.481 84.816-83.701 64.334v0Z" stroke="#000" stroke-width="8" stroke-miterlimit="10" stroke-linecap="round"/><path d="M134.992 131.14s-55.278 14.764-68.669-56.265c0 0 81.512 9.512 68.669 56.265ZM136.335 130.277l.218 90.803M141.35 125.137l53.434-38.35M136.353 130.689l-52.65-39.37M178.656 252.115c4.29-.008 7.466-4.777 6.566-9.825-3.749-21.028-19.329-36.481-38.009-36.481h-16.152c-18.676 0-34.253 15.569-38.007 36.622-.901 5.056 2.289 9.83 6.586 9.822l79.016-.138v0Z" stroke="#000" stroke-width="8" stroke-miterlimit="10" stroke-linecap="round"/><path d="M114.9 227.855c3.448 0 6.243-1.517 6.243-3.388s-2.795-3.387-6.243-3.387c-3.449 0-6.244 1.516-6.244 3.387s2.795 3.388 6.244 3.388ZM138.227 241.094c3.448 0 6.244-1.516 6.244-3.387s-2.796-3.388-6.244-3.388c-3.449 0-6.244 1.517-6.244 3.388s2.795 3.387 6.244 3.387ZM157.133 228.596c0-1.871 2.795-3.388 6.244-3.388 3.448 0 6.244 1.517 6.244 3.388s-2.796 3.387-6.244 3.387c-3.449 0-6.244-1.516-6.244-3.387Z" fill="#000"/></svg>