<?xml version="1.0" encoding="UTF-8"?><svg id="Layer_1" xmlns="http://www.w3.org/2000/svg" viewBox="0 0 400 400"><defs><style>.cls-1,.cls-2{fill:#84c7ee;}.cls-3{fill:#d6edea;}.cls-4{stroke-linecap:round;}.cls-4,.cls-2,.cls-5{stroke:#010101;stroke-miterlimit:10;stroke-width:8px;}.cls-4,.cls-5{fill:none;}</style></defs><path class="cls-3" d="M179.13,309.64h.03l4.73,.03c35.42,.22,66.01,.41,102.42-.26,3.24,0,6.35-2.58,6.35-5.22,0-58.34,0-113.45-.25-172.83,0-.5,.1-.97,.25-1.41v-43.19c0-6.92-5.61-12.52-12.52-12.52H134.07c-6.92,0-12.52,5.61-12.52,12.52v57.19c.25,29.13,.25,62.7,0,92.11v60.71c0,7.23,5.88,13.09,13.11,13.06l44.48-.18Z"/><path class="cls-4" d="M103.71,236.02c.25-29.44,.25-62.88,0-92.04m192.34-12.64c.25,59.39,.25,113.67,.25,172.85,0,5.28-5.28,9.51-10.57,9.51-38.05,.7-69.2,.47-107.25,.24"/><path class="cls-1" d="M213.01,268.99v71.42c0,3.02,3.53,4.66,5.84,2.72l16.63-14.03c1.16-.98,2.88-.93,3.98,.12l15.69,14.95c2.26,2.15,6,.55,6-2.57v-72.62"/><path class="cls-5" d="M213.01,268.99v71.42c0,3.02,3.53,4.66,5.84,2.72l16.63-14.03c1.16-.98,2.88-.93,3.98,.12l15.69,14.95c2.26,2.15,6,.55,6-2.57v-72.62"/><path class="cls-2" d="M237.19,304.84c17.29,0,31.3-14.07,31.3-31.42s-14.01-31.42-31.3-31.42-31.3,14.07-31.3,31.42,14.01,31.42,31.3,31.42Z"/><path class="cls-4" d="M296.29,236.02V72.79c0-9.29-7.53-16.82-16.82-16.82H120.53c-9.29,0-16.82,7.53-16.82,16.82V236.02"/><line class="cls-4" x1="137.28" y1="127.24" x2="264.02" y2="127.24"/><line class="cls-4" x1="137.28" y1="97.51" x2="264.02" y2="97.51"/><line class="cls-4" x1="137.28" y1="186.7" x2="264.02" y2="186.7"/><line class="cls-4" x1="137.28" y1="156.97" x2="264.02" y2="156.97"/><line class="cls-4" x1="137.28" y1="246.17" x2="186.94" y2="246.17"/><line class="cls-4" x1="137.28" y1="216.44" x2="264.02" y2="216.44"/></svg>