<svg width="100" height="100" fill="none" xmlns="http://www.w3.org/2000/svg"><g clip-path="url(#a)" fill="#333"><path d="M82.33 66.57 68.79 56.42V38.48a40.93 40.93 0 0 0-5.17-19.91l-9-16.24a4.55 4.55 0 0 0-7.94 0l-9 16.24a40.929 40.929 0 0 0-5.17 19.91v17.73L18.6 66.57a4.57 4.57 0 0 0-1.82 3.64v20.46a4.55 4.55 0 0 0 7.28 3.63l10.78-8.09h13.54V98a2 2 0 0 0 4 0V86.21h13.71l10.79 8.09a4.45 4.45 0 0 0 2.72.91 4.55 4.55 0 0 0 4.55-4.54V70.21a4.54 4.54 0 0 0-1.82-3.64ZM31 84.12l-9.31 7a.55.55 0 0 1-.88-.43V70.21a.558.558 0 0 1 .22-.44L31 62.3v21.82Zm33.82-7.36v5.45H52.38V70.73a2 2 0 1 0-4 0v11.48h-12V38.48a36.999 36.999 0 0 1 4.67-18l9-16.24a.56.56 0 0 1 .56-.24.48.48 0 0 1 .26.07.53.53 0 0 1 .21.21l9.05 16.24a37 37 0 0 1 4.66 18l.03 38.24Zm15.33 13.91a.55.55 0 0 1-.55.54.52.52 0 0 1-.32-.11l-9.31-7V62.3l10 7.47a.56.56 0 0 1 .22.44l-.04 20.46Z"/><path d="M50.61 29.3a6.82 6.82 0 1 0 0 13.64 6.82 6.82 0 0 0 0-13.64Zm0 9.63a2.82 2.82 0 1 1 2.82-2.81 2.81 2.81 0 0 1-2.82 2.81Z"/></g><defs><clipPath id="a"><path fill="#fff" d="M0 0h100v100H0z"/></clipPath></defs></svg>