<svg width="292" height="300" fill="none" xmlns="http://www.w3.org/2000/svg"><path d="M19.198 173.002c0-49.273 29.08-91.754 71.014-111.217M205.263 277.824c-18.522 11.248-40.263 17.725-63.517 17.725-23.271 0-45.026-6.486-63.558-17.749M196.479 63.327c40.206 20.104 67.814 61.665 67.814 109.675" stroke="#000" stroke-width="8" stroke-miterlimit="10" stroke-linecap="round"/><path d="M36.553 229.927c6.329.386 11.526-5.926 11.205-13.609-.274-6.58-4.68-11.926-10.1-12.259-6.333-.389-11.535 5.928-11.21 13.614.278 6.58 4.684 11.923 10.105 12.254ZM56.714 269.479c2.376 0 4.144-2.87 3.679-5.94-1.977-13.055-10.062-24.734-19.736-24.734-9.673 0-17.756 11.679-19.734 24.734-.465 3.07 1.303 5.94 3.679 5.94h32.112Z" fill="#00B7AA"/><path d="M30.229 232.998c10.082.507 18.361-7.778 17.85-17.861-.437-8.636-7.454-15.653-16.09-16.09-10.09-.51-18.376 7.781-17.859 17.869.443 8.635 7.463 15.648 16.099 16.082ZM55.947 269.626c3.537 0 6.17-3.24 5.478-6.709-2.945-14.746-14.982-27.938-29.387-27.938-14.402 0-26.438 13.192-29.383 27.938-.693 3.468 1.94 6.709 5.477 6.709h47.815Z" stroke="#000" stroke-width="8" stroke-miterlimit="10"/><path d="M148.613 34.1c6.329.385 11.526-5.927 11.206-13.61-.275-6.58-4.68-11.926-10.101-12.26-6.333-.388-11.535 5.93-11.21 13.615.278 6.58 4.684 11.923 10.105 12.254ZM168.775 73.65c2.375 0 4.144-2.869 3.678-5.939-1.977-13.055-10.061-24.734-19.736-24.734-9.672 0-17.756 11.68-19.734 24.734-.465 3.07 1.304 5.94 3.679 5.94h32.113Z" fill="#00B7AA"/><path d="M142.289 37.17c10.083.507 18.362-7.778 17.851-17.861-.438-8.636-7.455-15.653-16.091-16.09-10.089-.51-18.375 7.78-17.858 17.869.443 8.635 7.462 15.648 16.098 16.082ZM168.008 73.799c3.536 0 6.17-3.241 5.477-6.71-2.944-14.745-14.981-27.938-29.386-27.938-14.403 0-26.439 13.192-29.384 27.938-.693 3.469 1.941 6.71 5.477 6.71h47.816Z" stroke="#000" stroke-width="8" stroke-miterlimit="10"/><path d="M264.192 229.927c6.329.386 11.526-5.926 11.205-13.609-.275-6.58-4.679-11.926-10.1-12.259-6.334-.389-11.535 5.928-11.211 13.614.278 6.58 4.685 11.923 10.106 12.254ZM284.353 269.479c2.375 0 4.144-2.87 3.679-5.94-1.978-13.055-10.062-24.734-19.736-24.734-9.673 0-17.756 11.679-19.734 24.734-.466 3.07 1.303 5.94 3.678 5.94h32.113Z" fill="#00B7AA"/><path d="M257.867 232.998c10.083.507 18.362-7.778 17.851-17.861-.437-8.636-7.455-15.653-16.09-16.09-10.089-.51-18.376 7.781-17.859 17.869.443 8.635 7.463 15.648 16.098 16.082ZM283.586 269.626c3.537 0 6.17-3.24 5.478-6.709-2.945-14.746-14.982-27.938-29.387-27.938-14.402 0-26.439 13.192-29.384 27.938-.692 3.468 1.941 6.709 5.478 6.709h47.815Z" stroke="#000" stroke-width="8" stroke-miterlimit="10"/><path d="M183.747 219.958c22.48-22.48 22.48-58.927 0-81.407-22.479-22.479-58.926-22.479-81.406 0-22.48 22.48-22.48 58.927 0 81.407 22.48 22.479 58.927 22.479 81.406 0Z" fill="#82C7EE"/><path d="M192.789 222.044c27.487-27.488 27.487-72.054 0-99.542-27.488-27.487-72.054-27.487-99.541 0-27.488 27.488-27.488 72.054 0 99.542 27.487 27.487 72.053 27.487 99.541 0Z" stroke="#000" stroke-width="8" stroke-linecap="round" stroke-linejoin="round"/><path d="M143.425 242.943c13.377-.05 24.104-31.603 23.959-70.476-.146-38.873-11.108-70.345-24.485-70.295-13.377.049-24.104 31.603-23.959 70.476.145 38.873 11.107 70.345 24.485 70.295ZM88.149 215.794a79.662 79.662 0 0 1 8.98-6.446" stroke="#000" stroke-width="8" stroke-miterlimit="10" stroke-linecap="square"/><path d="M111.569 202.249c9.675-3.664 20.336-5.712 31.54-5.754 14.137-.053 27.434 3.095 38.995 8.666M189.183 209.005a79.547 79.547 0 0 1 9.028 6.378M87.825 129.164a79.618 79.618 0 0 0 9.028 6.379M111.346 142.534c9.702 3.592 20.378 5.56 31.582 5.519 14.137-.053 27.41-3.301 38.93-8.958M188.907 135.199a79.673 79.673 0 0 0 8.981-6.446M72.633 172.678l9.538-.035M96.488 172.589l100.22-.374M203.867 172.188l9.538-.035" stroke="#000" stroke-width="8" stroke-miterlimit="10" stroke-linecap="square"/></svg>